<mxfile host="app.diagrams.net" modified="2024-06-12T15:05:56.471Z" agent="Mozilla/5.0 (Windows NT 10.0; Win64; x64; rv:127.0) Gecko/20100101 Firefox/127.0" etag="ZDGpuoNa8ga4aVHK2s07" version="24.5.3" type="github">
  <diagram name="Pagina-1" id="-63KWE2EBDfRpYx0gYa-">
    <mxGraphModel dx="3274" dy="1478" grid="1" gridSize="14" guides="1" tooltips="1" connect="1" arrows="1" fold="1" page="0" pageScale="1" pageWidth="827" pageHeight="1169" background="none" math="0" shadow="0">
      <root>
        <mxCell id="0" />
        <mxCell id="1" parent="0" />
        <mxCell id="_PPmYWHMmeneKtp0pq9--51" value="" style="endArrow=none;html=1;rounded=0;exitX=1;exitY=0.5;exitDx=0;exitDy=0;entryX=0;entryY=0.5;entryDx=0;entryDy=0;" parent="1" source="_PPmYWHMmeneKtp0pq9--49" target="2d3XpBuDdh4GmcxXIJYH-4" edge="1">
          <mxGeometry width="50" height="50" relative="1" as="geometry">
            <mxPoint x="168" y="330" as="sourcePoint" />
            <mxPoint x="218" y="280" as="targetPoint" />
          </mxGeometry>
        </mxCell>
        <mxCell id="2d3XpBuDdh4GmcxXIJYH-4" value="&lt;div style=&quot;text-align: justify;&quot;&gt;&lt;span style=&quot;background-color: initial;&quot;&gt;&lt;b style=&quot;&quot;&gt;&lt;font style=&quot;font-size: 19px;&quot;&gt;UTENTE&lt;/font&gt;&lt;/b&gt;&lt;/span&gt;&lt;/div&gt;" style="rounded=1;arcSize=10;whiteSpace=wrap;html=1;align=center;" parent="1" vertex="1">
          <mxGeometry x="448" y="278" width="112" height="56" as="geometry" />
        </mxCell>
        <mxCell id="2d3XpBuDdh4GmcxXIJYH-8" value="user" style="text;html=1;align=center;verticalAlign=middle;whiteSpace=wrap;rounded=0;" parent="1" vertex="1">
          <mxGeometry x="523" y="400" width="60" height="29" as="geometry" />
        </mxCell>
        <mxCell id="2d3XpBuDdh4GmcxXIJYH-9" value="psw" style="text;html=1;align=center;verticalAlign=middle;whiteSpace=wrap;rounded=0;" parent="1" vertex="1">
          <mxGeometry x="496" y="371" width="60" height="29" as="geometry" />
        </mxCell>
        <mxCell id="2d3XpBuDdh4GmcxXIJYH-12" value="nome" style="text;html=1;align=center;verticalAlign=middle;whiteSpace=wrap;rounded=0;" parent="1" vertex="1">
          <mxGeometry x="344" y="288" width="60" height="30" as="geometry" />
        </mxCell>
        <mxCell id="2d3XpBuDdh4GmcxXIJYH-13" value="cognome" style="text;html=1;align=center;verticalAlign=middle;whiteSpace=wrap;rounded=0;" parent="1" vertex="1">
          <mxGeometry x="341" y="308" width="60" height="30" as="geometry" />
        </mxCell>
        <mxCell id="2d3XpBuDdh4GmcxXIJYH-17" value="anno" style="text;html=1;align=center;verticalAlign=middle;whiteSpace=wrap;rounded=0;" parent="1" vertex="1">
          <mxGeometry x="460" y="400" width="60" height="30" as="geometry" />
        </mxCell>
        <mxCell id="2d3XpBuDdh4GmcxXIJYH-18" value="luogo_&lt;span style=&quot;background-color: initial;&quot;&gt;nascita&lt;/span&gt;" style="text;html=1;align=center;verticalAlign=middle;whiteSpace=wrap;rounded=0;" parent="1" vertex="1">
          <mxGeometry x="523" y="133" width="60" height="30" as="geometry" />
        </mxCell>
        <mxCell id="2d3XpBuDdh4GmcxXIJYH-19" value="foto" style="text;html=1;align=center;verticalAlign=middle;whiteSpace=wrap;rounded=0;" parent="1" vertex="1">
          <mxGeometry x="441" y="371.5" width="60" height="28" as="geometry" />
        </mxCell>
        <mxCell id="2d3XpBuDdh4GmcxXIJYH-23" value="tel" style="text;html=1;align=center;verticalAlign=middle;whiteSpace=wrap;rounded=0;" parent="1" vertex="1">
          <mxGeometry x="427" y="207" width="60" height="30" as="geometry" />
        </mxCell>
        <mxCell id="2d3XpBuDdh4GmcxXIJYH-24" value="matricola" style="text;html=1;align=center;verticalAlign=middle;whiteSpace=wrap;rounded=0;" parent="1" vertex="1">
          <mxGeometry x="445" y="163" width="60" height="30" as="geometry" />
        </mxCell>
        <mxCell id="2d3XpBuDdh4GmcxXIJYH-25" value="corso" style="text;html=1;align=center;verticalAlign=middle;whiteSpace=wrap;rounded=0;" parent="1" vertex="1">
          <mxGeometry x="468" y="204" width="60" height="30" as="geometry" />
        </mxCell>
        <mxCell id="2d3XpBuDdh4GmcxXIJYH-27" value="" style="ellipse;whiteSpace=wrap;html=1;align=center;aspect=fixed;fillColor=none;strokeColor=none;resizable=0;perimeter=centerPerimeter;rotatable=0;allowArrows=0;points=[];outlineConnect=1;" parent="1" vertex="1">
          <mxGeometry x="35" y="349.25" width="10" height="10" as="geometry" />
        </mxCell>
        <mxCell id="2d3XpBuDdh4GmcxXIJYH-35" value="&lt;b&gt;&lt;font style=&quot;font-size: 15px;&quot;&gt;ORGANIZZA&lt;/font&gt;&lt;/b&gt;" style="shape=rhombus;perimeter=rhombusPerimeter;whiteSpace=wrap;html=1;align=center;" parent="1" vertex="1">
          <mxGeometry x="224" y="551" width="120" height="60" as="geometry" />
        </mxCell>
        <mxCell id="2d3XpBuDdh4GmcxXIJYH-36" value="" style="endArrow=none;html=1;rounded=0;entryX=0.131;entryY=1.008;entryDx=0;entryDy=0;exitX=1;exitY=0.5;exitDx=0;exitDy=0;entryPerimeter=0;" parent="1" source="2d3XpBuDdh4GmcxXIJYH-35" target="2d3XpBuDdh4GmcxXIJYH-4" edge="1">
          <mxGeometry width="50" height="50" relative="1" as="geometry">
            <mxPoint x="-14" y="624" as="sourcePoint" />
            <mxPoint x="334" y="588" as="targetPoint" />
          </mxGeometry>
        </mxCell>
        <mxCell id="2d3XpBuDdh4GmcxXIJYH-37" value="&lt;b&gt;&lt;font style=&quot;font-size: 16px;&quot;&gt;EVENTO_SPO&lt;/font&gt;&lt;/b&gt;" style="rounded=1;arcSize=10;whiteSpace=wrap;html=1;align=center;" parent="1" vertex="1">
          <mxGeometry x="-560" y="560" width="112" height="56" as="geometry" />
        </mxCell>
        <mxCell id="2d3XpBuDdh4GmcxXIJYH-38" value="" style="endArrow=none;html=1;rounded=0;entryX=0;entryY=0.5;entryDx=0;entryDy=0;exitX=1;exitY=0.5;exitDx=0;exitDy=0;" parent="1" source="2d3XpBuDdh4GmcxXIJYH-37" target="2d3XpBuDdh4GmcxXIJYH-35" edge="1">
          <mxGeometry width="50" height="50" relative="1" as="geometry">
            <mxPoint x="-322" y="624" as="sourcePoint" />
            <mxPoint x="-272" y="574" as="targetPoint" />
          </mxGeometry>
        </mxCell>
        <mxCell id="2d3XpBuDdh4GmcxXIJYH-40" value="id_evento" style="text;html=1;align=center;verticalAlign=middle;whiteSpace=wrap;rounded=0;" parent="1" vertex="1">
          <mxGeometry x="-561" y="659" width="60" height="30" as="geometry" />
        </mxCell>
        <mxCell id="2d3XpBuDdh4GmcxXIJYH-43" value="data" style="text;html=1;align=center;verticalAlign=middle;whiteSpace=wrap;rounded=0;" parent="1" vertex="1">
          <mxGeometry x="-504" y="485.5" width="60" height="30" as="geometry" />
        </mxCell>
        <mxCell id="2d3XpBuDdh4GmcxXIJYH-44" value="aperto" style="text;html=1;align=center;verticalAlign=middle;whiteSpace=wrap;rounded=0;" parent="1" vertex="1">
          <mxGeometry x="-561" y="486" width="60" height="30" as="geometry" />
        </mxCell>
        <mxCell id="2d3XpBuDdh4GmcxXIJYH-45" value="&lt;b&gt;&lt;font style=&quot;font-size: 19px;&quot;&gt;IMPIANTO&lt;/font&gt;&lt;/b&gt;" style="rounded=1;whiteSpace=wrap;html=1;direction=east;" parent="1" vertex="1">
          <mxGeometry x="-1064" y="558" width="112" height="60" as="geometry" />
        </mxCell>
        <mxCell id="2d3XpBuDdh4GmcxXIJYH-47" value="&lt;b&gt;&lt;font style=&quot;font-size: 16px;&quot;&gt;SI_SVOLGE&lt;/font&gt;&lt;/b&gt;" style="shape=rhombus;perimeter=rhombusPerimeter;whiteSpace=wrap;html=1;align=center;" parent="1" vertex="1">
          <mxGeometry x="-798" y="560" width="120" height="60" as="geometry" />
        </mxCell>
        <mxCell id="2d3XpBuDdh4GmcxXIJYH-49" value="" style="endArrow=none;html=1;rounded=0;entryX=1;entryY=0.5;entryDx=0;entryDy=0;exitX=0;exitY=0.5;exitDx=0;exitDy=0;" parent="1" source="2d3XpBuDdh4GmcxXIJYH-37" target="2d3XpBuDdh4GmcxXIJYH-47" edge="1">
          <mxGeometry width="50" height="50" relative="1" as="geometry">
            <mxPoint x="-532" y="498" as="sourcePoint" />
            <mxPoint x="-482" y="448" as="targetPoint" />
          </mxGeometry>
        </mxCell>
        <mxCell id="2d3XpBuDdh4GmcxXIJYH-55" value="nome" style="text;html=1;align=center;verticalAlign=middle;whiteSpace=wrap;rounded=0;direction=east;" parent="1" vertex="1">
          <mxGeometry x="-1012" y="469.5" width="60" height="30" as="geometry" />
        </mxCell>
        <mxCell id="2d3XpBuDdh4GmcxXIJYH-61" value="via" style="text;html=1;align=center;verticalAlign=middle;whiteSpace=wrap;rounded=0;direction=east;" parent="1" vertex="1">
          <mxGeometry x="-1066" y="468" width="60" height="30" as="geometry" />
        </mxCell>
        <mxCell id="2d3XpBuDdh4GmcxXIJYH-65" value="tel" style="text;html=1;align=center;verticalAlign=middle;whiteSpace=wrap;rounded=0;direction=east;" parent="1" vertex="1">
          <mxGeometry x="-1064" y="667" width="60" height="30" as="geometry" />
        </mxCell>
        <mxCell id="2d3XpBuDdh4GmcxXIJYH-66" value="email" style="text;html=1;align=center;verticalAlign=top;whiteSpace=wrap;rounded=0;direction=east;" parent="1" vertex="1">
          <mxGeometry x="-1010" y="667" width="60" height="30" as="geometry" />
        </mxCell>
        <mxCell id="c_5whPo5ll7_a1Px60WQ-2" value="&lt;b&gt;&lt;font style=&quot;font-size: 17px;&quot;&gt;CATEGORIA&lt;/font&gt;&lt;/b&gt;" style="rounded=1;arcSize=10;whiteSpace=wrap;html=1;align=center;" parent="1" vertex="1">
          <mxGeometry x="-558.5" y="-115.5" width="112" height="56" as="geometry" />
        </mxCell>
        <mxCell id="c_5whPo5ll7_a1Px60WQ-7" value="id" style="text;html=1;align=center;verticalAlign=middle;whiteSpace=wrap;rounded=0;" parent="1" vertex="1">
          <mxGeometry x="-676" y="-114" width="60" height="30" as="geometry" />
        </mxCell>
        <mxCell id="c_5whPo5ll7_a1Px60WQ-8" value="n_giocatori" style="text;html=1;align=center;verticalAlign=middle;whiteSpace=wrap;rounded=0;" parent="1" vertex="1">
          <mxGeometry x="-373" y="-123.5" width="60" height="30" as="geometry" />
        </mxCell>
        <mxCell id="c_5whPo5ll7_a1Px60WQ-9" value="regolamento" style="text;html=1;align=center;verticalAlign=middle;whiteSpace=wrap;rounded=0;" parent="1" vertex="1">
          <mxGeometry x="-700" y="-92" width="60" height="30" as="geometry" />
        </mxCell>
        <mxCell id="c_5whPo5ll7_a1Px60WQ-12" value="foto" style="text;html=1;align=center;verticalAlign=middle;whiteSpace=wrap;rounded=0;" parent="1" vertex="1">
          <mxGeometry x="-379" y="-92" width="60" height="30" as="geometry" />
        </mxCell>
        <mxCell id="c_5whPo5ll7_a1Px60WQ-14" value="&lt;b&gt;&lt;font style=&quot;font-size: 14px;&quot;&gt;APPARTIENE&lt;/font&gt;&lt;/b&gt;" style="shape=rhombus;perimeter=rhombusPerimeter;whiteSpace=wrap;html=1;align=center;" parent="1" vertex="1">
          <mxGeometry x="-563.5" y="294" width="120" height="60" as="geometry" />
        </mxCell>
        <mxCell id="c_5whPo5ll7_a1Px60WQ-15" value="" style="endArrow=none;html=1;rounded=0;entryX=0.5;entryY=0;entryDx=0;entryDy=0;exitX=0.458;exitY=1.003;exitDx=0;exitDy=0;exitPerimeter=0;" parent="1" source="c_5whPo5ll7_a1Px60WQ-2" target="c_5whPo5ll7_a1Px60WQ-14" edge="1">
          <mxGeometry width="50" height="50" relative="1" as="geometry">
            <mxPoint x="-905.5" y="144.75" as="sourcePoint" />
            <mxPoint x="-141.5" y="424.75" as="targetPoint" />
          </mxGeometry>
        </mxCell>
        <mxCell id="c_5whPo5ll7_a1Px60WQ-16" value="" style="endArrow=none;html=1;rounded=0;entryX=0.5;entryY=0;entryDx=0;entryDy=0;exitX=0.5;exitY=1;exitDx=0;exitDy=0;" parent="1" source="c_5whPo5ll7_a1Px60WQ-14" target="2d3XpBuDdh4GmcxXIJYH-37" edge="1">
          <mxGeometry width="50" height="50" relative="1" as="geometry">
            <mxPoint x="-784" y="392" as="sourcePoint" />
            <mxPoint x="-616" y="390.5" as="targetPoint" />
          </mxGeometry>
        </mxCell>
        <mxCell id="c_5whPo5ll7_a1Px60WQ-17" value="&lt;b&gt;&lt;font style=&quot;font-size: 19px;&quot;&gt;TORNEO&lt;/font&gt;&lt;/b&gt;" style="rounded=1;arcSize=10;whiteSpace=wrap;html=1;align=center;" parent="1" vertex="1">
          <mxGeometry x="-561" y="1120" width="114" height="56" as="geometry" />
        </mxCell>
        <mxCell id="c_5whPo5ll7_a1Px60WQ-19" value="&lt;b&gt;&lt;font style=&quot;font-size: 18px;&quot;&gt;FORMA&lt;/font&gt;&lt;/b&gt;" style="shape=rhombus;perimeter=rhombusPerimeter;whiteSpace=wrap;html=1;align=center;" parent="1" vertex="1">
          <mxGeometry x="-564" y="833" width="120" height="70" as="geometry" />
        </mxCell>
        <mxCell id="c_5whPo5ll7_a1Px60WQ-20" value="" style="endArrow=none;html=1;rounded=0;entryX=0.5;entryY=1;entryDx=0;entryDy=0;exitX=0.5;exitY=0;exitDx=0;exitDy=0;" parent="1" source="c_5whPo5ll7_a1Px60WQ-17" target="c_5whPo5ll7_a1Px60WQ-19" edge="1">
          <mxGeometry width="50" height="50" relative="1" as="geometry">
            <mxPoint x="-490" y="1030" as="sourcePoint" />
            <mxPoint x="-440" y="980" as="targetPoint" />
          </mxGeometry>
        </mxCell>
        <mxCell id="c_5whPo5ll7_a1Px60WQ-22" value="" style="endArrow=none;html=1;rounded=0;entryX=0.5;entryY=1;entryDx=0;entryDy=0;exitX=0.5;exitY=0;exitDx=0;exitDy=0;" parent="1" source="c_5whPo5ll7_a1Px60WQ-19" target="2d3XpBuDdh4GmcxXIJYH-37" edge="1">
          <mxGeometry width="50" height="50" relative="1" as="geometry">
            <mxPoint x="-532" y="764" as="sourcePoint" />
            <mxPoint x="-482" y="714" as="targetPoint" />
          </mxGeometry>
        </mxCell>
        <mxCell id="c_5whPo5ll7_a1Px60WQ-23" style="edgeStyle=orthogonalEdgeStyle;rounded=0;orthogonalLoop=1;jettySize=auto;html=1;exitX=0.5;exitY=1;exitDx=0;exitDy=0;" parent="1" source="c_5whPo5ll7_a1Px60WQ-19" target="c_5whPo5ll7_a1Px60WQ-19" edge="1">
          <mxGeometry relative="1" as="geometry" />
        </mxCell>
        <mxCell id="c_5whPo5ll7_a1Px60WQ-29" value="id" style="text;html=1;align=center;verticalAlign=middle;whiteSpace=wrap;rounded=0;" parent="1" vertex="1">
          <mxGeometry x="-648" y="1148" width="60" height="30" as="geometry" />
        </mxCell>
        <mxCell id="c_5whPo5ll7_a1Px60WQ-30" value="sponsor" style="text;html=1;align=center;verticalAlign=middle;whiteSpace=wrap;rounded=0;" parent="1" vertex="1">
          <mxGeometry x="-501" y="1222" width="60" height="30" as="geometry" />
        </mxCell>
        <mxCell id="c_5whPo5ll7_a1Px60WQ-31" value="descrizione" style="text;html=1;align=center;verticalAlign=middle;whiteSpace=wrap;rounded=0;" parent="1" vertex="1">
          <mxGeometry x="-566" y="1222" width="60" height="30" as="geometry" />
        </mxCell>
        <mxCell id="c_5whPo5ll7_a1Px60WQ-32" value="restrizioni" style="text;html=1;align=center;verticalAlign=middle;whiteSpace=wrap;rounded=0;" parent="1" vertex="1">
          <mxGeometry x="-504" y="1050" width="60" height="30" as="geometry" />
        </mxCell>
        <mxCell id="c_5whPo5ll7_a1Px60WQ-33" value="premi" style="text;html=1;align=center;verticalAlign=middle;whiteSpace=wrap;rounded=0;" parent="1" vertex="1">
          <mxGeometry x="-561" y="1050" width="60" height="30" as="geometry" />
        </mxCell>
        <mxCell id="c_5whPo5ll7_a1Px60WQ-47" value="&lt;font style=&quot;font-size: 14px;&quot;&gt;&lt;b&gt;REGISTRARE&lt;/b&gt;&lt;/font&gt;" style="shape=rhombus;perimeter=rhombusPerimeter;whiteSpace=wrap;html=1;align=center;" parent="1" vertex="1">
          <mxGeometry x="546" y="716" width="120" height="60" as="geometry" />
        </mxCell>
        <mxCell id="c_5whPo5ll7_a1Px60WQ-48" value="&lt;b&gt;&lt;font style=&quot;font-size: 19px;&quot;&gt;SQUADRA&lt;/font&gt;&lt;/b&gt;" style="rounded=1;arcSize=10;whiteSpace=wrap;html=1;align=center;" parent="1" vertex="1">
          <mxGeometry x="332" y="1120" width="116" height="56" as="geometry" />
        </mxCell>
        <mxCell id="c_5whPo5ll7_a1Px60WQ-49" value="" style="endArrow=none;html=1;rounded=0;entryX=1;entryY=1;entryDx=0;entryDy=0;exitX=0.5;exitY=0;exitDx=0;exitDy=0;" parent="1" source="c_5whPo5ll7_a1Px60WQ-47" target="2d3XpBuDdh4GmcxXIJYH-4" edge="1">
          <mxGeometry width="50" height="50" relative="1" as="geometry">
            <mxPoint x="318" y="764" as="sourcePoint" />
            <mxPoint x="390" y="615.9999999999998" as="targetPoint" />
          </mxGeometry>
        </mxCell>
        <mxCell id="c_5whPo5ll7_a1Px60WQ-50" value="" style="endArrow=none;html=1;rounded=0;entryX=0.5;entryY=1;entryDx=0;entryDy=0;exitX=0.5;exitY=0;exitDx=0;exitDy=0;" parent="1" source="c_5whPo5ll7_a1Px60WQ-48" target="c_5whPo5ll7_a1Px60WQ-47" edge="1">
          <mxGeometry width="50" height="50" relative="1" as="geometry">
            <mxPoint x="388" y="1044" as="sourcePoint" />
            <mxPoint x="438" y="994" as="targetPoint" />
          </mxGeometry>
        </mxCell>
        <mxCell id="c_5whPo5ll7_a1Px60WQ-60" value="nome" style="text;html=1;align=center;verticalAlign=middle;whiteSpace=wrap;rounded=0;" parent="1" vertex="1">
          <mxGeometry x="332" y="1043.5" width="60" height="30" as="geometry" />
        </mxCell>
        <mxCell id="c_5whPo5ll7_a1Px60WQ-61" value="colore_maglia" style="text;html=1;align=center;verticalAlign=middle;whiteSpace=wrap;rounded=0;" parent="1" vertex="1">
          <mxGeometry x="400" y="1043.5" width="60" height="30" as="geometry" />
        </mxCell>
        <mxCell id="c_5whPo5ll7_a1Px60WQ-62" value="partecipanti_max" style="text;html=1;align=center;verticalAlign=middle;whiteSpace=wrap;rounded=0;" parent="1" vertex="1">
          <mxGeometry x="519" y="1116" width="60" height="30" as="geometry" />
        </mxCell>
        <mxCell id="c_5whPo5ll7_a1Px60WQ-63" value="partecipanti_min" style="text;html=1;align=center;verticalAlign=middle;whiteSpace=wrap;rounded=0;" parent="1" vertex="1">
          <mxGeometry x="519" y="1148" width="60" height="30" as="geometry" />
        </mxCell>
        <mxCell id="c_5whPo5ll7_a1Px60WQ-64" value="descrizione" style="text;html=1;align=center;verticalAlign=middle;whiteSpace=wrap;rounded=0;" parent="1" vertex="1">
          <mxGeometry x="332" y="1222" width="60" height="30" as="geometry" />
        </mxCell>
        <mxCell id="c_5whPo5ll7_a1Px60WQ-66" value="note" style="text;html=1;align=center;verticalAlign=middle;whiteSpace=wrap;rounded=0;" parent="1" vertex="1">
          <mxGeometry x="392" y="1222" width="60" height="30" as="geometry" />
        </mxCell>
        <mxCell id="c_5whPo5ll7_a1Px60WQ-84" value="data" style="text;html=1;align=center;verticalAlign=middle;whiteSpace=wrap;rounded=0;" parent="1" vertex="1">
          <mxGeometry x="-123.95000000000005" y="22.5" width="60" height="30" as="geometry" />
        </mxCell>
        <mxCell id="c_5whPo5ll7_a1Px60WQ-86" value="punteggio" style="text;html=1;align=center;verticalAlign=middle;whiteSpace=wrap;rounded=0;" parent="1" vertex="1">
          <mxGeometry x="-255.95000000000005" y="-55.25" width="60" height="30" as="geometry" />
        </mxCell>
        <mxCell id="p33J7JNSHubDcJJtzhHf-7" value="latitudine" style="text;html=1;align=center;verticalAlign=middle;whiteSpace=wrap;rounded=0;direction=east;" parent="1" vertex="1">
          <mxGeometry x="-1143" y="519.5" width="60" height="30" as="geometry" />
        </mxCell>
        <mxCell id="p33J7JNSHubDcJJtzhHf-8" value="longitudine" style="text;html=1;align=center;verticalAlign=middle;whiteSpace=wrap;rounded=0;direction=east;" parent="1" vertex="1">
          <mxGeometry x="-1143" y="618" width="60" height="30" as="geometry" />
        </mxCell>
        <mxCell id="p33J7JNSHubDcJJtzhHf-17" value="ruolo" style="text;html=1;align=center;verticalAlign=middle;whiteSpace=wrap;rounded=0;" parent="1" vertex="1">
          <mxGeometry x="-35" y="274.75" width="60" height="30" as="geometry" />
        </mxCell>
        <mxCell id="p33J7JNSHubDcJJtzhHf-18" value="data" style="text;html=1;align=center;verticalAlign=middle;whiteSpace=wrap;rounded=0;" parent="1" vertex="1">
          <mxGeometry x="-102" y="430" width="60" height="30" as="geometry" />
        </mxCell>
        <mxCell id="p33J7JNSHubDcJJtzhHf-20" value="&lt;b&gt;&lt;font style=&quot;font-size: 18px;&quot;&gt;ESITO&lt;/font&gt;&lt;/b&gt;" style="rounded=1;arcSize=10;whiteSpace=wrap;html=1;align=center;" parent="1" vertex="1">
          <mxGeometry x="724" y="784" width="112" height="56" as="geometry" />
        </mxCell>
        <mxCell id="p33J7JNSHubDcJJtzhHf-53" value="goal" style="text;html=1;align=center;verticalAlign=middle;whiteSpace=wrap;rounded=0;" parent="1" vertex="1">
          <mxGeometry x="940" y="469.5" width="60" height="30" as="geometry" />
        </mxCell>
        <mxCell id="p33J7JNSHubDcJJtzhHf-54" value="pts" style="text;html=1;align=center;verticalAlign=middle;whiteSpace=wrap;rounded=0;" parent="1" vertex="1">
          <mxGeometry x="1058" y="555.5" width="60" height="30" as="geometry" />
        </mxCell>
        <mxCell id="p33J7JNSHubDcJJtzhHf-55" value="" style="endArrow=none;html=1;rounded=0;exitX=0.973;exitY=0.024;exitDx=0;exitDy=0;entryX=0.5;entryY=1;entryDx=0;entryDy=0;exitPerimeter=0;" parent="1" source="p33J7JNSHubDcJJtzhHf-20" target="Q12W83flebK6DkI4KkJT-18" edge="1">
          <mxGeometry width="50" height="50" relative="1" as="geometry">
            <mxPoint x="849.998" y="783.904" as="sourcePoint" />
            <mxPoint x="858.54" y="779.625" as="targetPoint" />
          </mxGeometry>
        </mxCell>
        <mxCell id="p33J7JNSHubDcJJtzhHf-61" value="id_esito" style="text;html=1;align=center;verticalAlign=middle;whiteSpace=wrap;rounded=0;" parent="1" vertex="1">
          <mxGeometry x="750" y="716" width="60" height="30" as="geometry" />
        </mxCell>
        <mxCell id="Nxy0P4lHTAv6eegYPjBZ-17" value="accettato_iscr" style="text;html=1;align=center;verticalAlign=middle;whiteSpace=wrap;rounded=0;" parent="1" vertex="1">
          <mxGeometry x="-35" y="437.25" width="60" height="30" as="geometry" />
        </mxCell>
        <mxCell id="Nxy0P4lHTAv6eegYPjBZ-18" value="&lt;b&gt;&lt;font style=&quot;font-size: 18px;&quot;&gt;PARTECIPA&lt;/font&gt;&lt;/b&gt;" style="shape=rhombus;perimeter=rhombusPerimeter;whiteSpace=wrap;html=1;align=center;" parent="1" vertex="1">
          <mxGeometry x="-154" y="1118" width="120" height="60" as="geometry" />
        </mxCell>
        <mxCell id="Nxy0P4lHTAv6eegYPjBZ-22" value="" style="endArrow=none;html=1;rounded=0;exitX=1;exitY=0.5;exitDx=0;exitDy=0;entryX=0;entryY=0.5;entryDx=0;entryDy=0;" parent="1" source="c_5whPo5ll7_a1Px60WQ-17" target="Nxy0P4lHTAv6eegYPjBZ-18" edge="1">
          <mxGeometry width="50" height="50" relative="1" as="geometry">
            <mxPoint x="-392" y="1142" as="sourcePoint" />
            <mxPoint x="-342" y="1092" as="targetPoint" />
          </mxGeometry>
        </mxCell>
        <mxCell id="Nxy0P4lHTAv6eegYPjBZ-23" value="" style="endArrow=none;html=1;rounded=0;exitX=1;exitY=0.5;exitDx=0;exitDy=0;entryX=0;entryY=0.5;entryDx=0;entryDy=0;" parent="1" source="Nxy0P4lHTAv6eegYPjBZ-18" target="c_5whPo5ll7_a1Px60WQ-48" edge="1">
          <mxGeometry width="50" height="50" relative="1" as="geometry">
            <mxPoint x="-168" y="1086" as="sourcePoint" />
            <mxPoint x="-118" y="1036" as="targetPoint" />
          </mxGeometry>
        </mxCell>
        <mxCell id="Nxy0P4lHTAv6eegYPjBZ-43" value="affidabile" style="text;html=1;align=center;verticalAlign=middle;whiteSpace=wrap;rounded=0;" parent="1" vertex="1">
          <mxGeometry x="344" y="268" width="60" height="30" as="geometry" />
        </mxCell>
        <mxCell id="Nxy0P4lHTAv6eegYPjBZ-52" value="sport" style="text;html=1;align=center;verticalAlign=middle;whiteSpace=wrap;rounded=0;" parent="1" vertex="1">
          <mxGeometry x="496" y="185" width="60" height="30" as="geometry" />
        </mxCell>
        <mxCell id="Nxy0P4lHTAv6eegYPjBZ-73" value="(0,n)" style="text;html=1;align=center;verticalAlign=middle;whiteSpace=wrap;rounded=0;" parent="1" vertex="1">
          <mxGeometry x="588" y="686" width="60" height="30" as="geometry" />
        </mxCell>
        <mxCell id="Nxy0P4lHTAv6eegYPjBZ-74" value="(1,1)" style="text;html=1;align=center;verticalAlign=middle;whiteSpace=wrap;rounded=0;" parent="1" vertex="1">
          <mxGeometry x="594" y="773" width="60" height="30" as="geometry" />
        </mxCell>
        <mxCell id="Nxy0P4lHTAv6eegYPjBZ-77" value="(0,n)" style="text;html=1;align=center;verticalAlign=middle;whiteSpace=wrap;rounded=0;" parent="1" vertex="1">
          <mxGeometry x="-34" y="1116" width="60" height="30" as="geometry" />
        </mxCell>
        <mxCell id="Nxy0P4lHTAv6eegYPjBZ-78" value="(0,n)" style="text;html=1;align=center;verticalAlign=middle;whiteSpace=wrap;rounded=0;" parent="1" vertex="1">
          <mxGeometry x="-214" y="1120" width="60" height="30" as="geometry" />
        </mxCell>
        <mxCell id="Nxy0P4lHTAv6eegYPjBZ-79" value="(0,1)" style="text;html=1;align=center;verticalAlign=middle;whiteSpace=wrap;rounded=0;" parent="1" vertex="1">
          <mxGeometry x="-508" y="803" width="60" height="30" as="geometry" />
        </mxCell>
        <mxCell id="Nxy0P4lHTAv6eegYPjBZ-80" value="(0,n)" style="text;html=1;align=center;verticalAlign=middle;whiteSpace=wrap;rounded=0;" parent="1" vertex="1">
          <mxGeometry x="-508" y="900" width="60" height="30" as="geometry" />
        </mxCell>
        <mxCell id="Nxy0P4lHTAv6eegYPjBZ-81" value="(0,n)" style="text;html=1;align=center;verticalAlign=middle;whiteSpace=wrap;rounded=0;" parent="1" vertex="1">
          <mxGeometry x="308" y="519.5" width="60" height="30" as="geometry" />
        </mxCell>
        <mxCell id="Nxy0P4lHTAv6eegYPjBZ-82" value="(1,1)" style="text;html=1;align=center;verticalAlign=middle;whiteSpace=wrap;rounded=0;" parent="1" vertex="1">
          <mxGeometry x="172" y="551" width="60" height="30" as="geometry" />
        </mxCell>
        <mxCell id="Nxy0P4lHTAv6eegYPjBZ-83" value="(1,1)" style="text;html=1;align=center;verticalAlign=middle;whiteSpace=wrap;rounded=0;" parent="1" vertex="1">
          <mxGeometry x="-511.5" y="356" width="60" height="30" as="geometry" />
        </mxCell>
        <mxCell id="Nxy0P4lHTAv6eegYPjBZ-84" value="(0,n)" style="text;html=1;align=center;verticalAlign=middle;whiteSpace=wrap;rounded=0;" parent="1" vertex="1">
          <mxGeometry x="-511.5" y="272.5" width="60" height="30" as="geometry" />
        </mxCell>
        <mxCell id="Nxy0P4lHTAv6eegYPjBZ-85" value="(1,1)" style="text;html=1;align=center;verticalAlign=middle;whiteSpace=wrap;rounded=0;" parent="1" vertex="1">
          <mxGeometry x="-702" y="595" width="60" height="30" as="geometry" />
        </mxCell>
        <mxCell id="Nxy0P4lHTAv6eegYPjBZ-86" value="(0,n)" style="text;html=1;align=center;verticalAlign=middle;whiteSpace=wrap;rounded=0;" parent="1" vertex="1">
          <mxGeometry x="-826" y="587" width="60" height="30" as="geometry" />
        </mxCell>
        <mxCell id="Nxy0P4lHTAv6eegYPjBZ-91" value="" style="group;movable=0;resizable=0;rotatable=0;deletable=0;editable=0;locked=1;connectable=0;" parent="1" vertex="1" connectable="0">
          <mxGeometry x="672" y="504" width="196" height="163" as="geometry" />
        </mxCell>
        <mxCell id="LlNJrqZkrt-LbO2q0fCe-2" value="" style="group;movable=0;resizable=0;rotatable=0;deletable=0;editable=0;locked=1;connectable=0;" parent="Nxy0P4lHTAv6eegYPjBZ-91" vertex="1" connectable="0">
          <mxGeometry x="54" width="88" height="97" as="geometry" />
        </mxCell>
        <mxCell id="p33J7JNSHubDcJJtzhHf-26" value="un utente semplice" style="shape=umlActor;verticalLabelPosition=bottom;verticalAlign=top;html=1;movable=0;resizable=0;rotatable=0;deletable=0;editable=0;locked=1;connectable=0;" parent="LlNJrqZkrt-LbO2q0fCe-2" vertex="1">
          <mxGeometry x="29" y="37" width="30" height="60" as="geometry" />
        </mxCell>
        <mxCell id="p33J7JNSHubDcJJtzhHf-64" value="Lui è Giacomo" style="text;html=1;align=center;verticalAlign=middle;whiteSpace=wrap;rounded=0;movable=0;resizable=0;rotatable=0;deletable=0;editable=0;locked=1;connectable=0;" parent="LlNJrqZkrt-LbO2q0fCe-2" vertex="1">
          <mxGeometry width="88" height="30" as="geometry" />
        </mxCell>
        <mxCell id="Nxy0P4lHTAv6eegYPjBZ-90" value="Se vuoi aiutarlo a diventare un utente premium come i suoi amici, dona 1€&lt;div&gt;&lt;br&gt;&lt;/div&gt;" style="text;html=1;align=center;verticalAlign=middle;whiteSpace=wrap;rounded=0;movable=1;resizable=1;rotatable=1;deletable=1;editable=1;locked=0;connectable=1;" parent="Nxy0P4lHTAv6eegYPjBZ-91" vertex="1">
          <mxGeometry y="133" width="196" height="30" as="geometry" />
        </mxCell>
        <mxCell id="_PlpnI5WxaQTCf_P7hRN-1" value="" style="ellipse;whiteSpace=wrap;html=1;aspect=fixed;fillColor=#000000;" parent="1" vertex="1">
          <mxGeometry x="-630" y="-107.5" width="14" height="14" as="geometry" />
        </mxCell>
        <mxCell id="_PlpnI5WxaQTCf_P7hRN-3" value="" style="endArrow=none;html=1;rounded=0;entryX=0;entryY=0.25;entryDx=0;entryDy=0;" parent="1" target="c_5whPo5ll7_a1Px60WQ-2" edge="1">
          <mxGeometry width="50" height="50" relative="1" as="geometry">
            <mxPoint x="-616" y="-102" as="sourcePoint" />
            <mxPoint x="-950" y="-71" as="targetPoint" />
          </mxGeometry>
        </mxCell>
        <mxCell id="_PlpnI5WxaQTCf_P7hRN-4" value="" style="ellipse;whiteSpace=wrap;html=1;aspect=fixed;fillColor=#FFFFFF;" parent="1" vertex="1">
          <mxGeometry x="-387" y="-84.5" width="14" height="14" as="geometry" />
        </mxCell>
        <mxCell id="_PlpnI5WxaQTCf_P7hRN-8" value="" style="ellipse;whiteSpace=wrap;html=1;aspect=fixed;fillColor=#FFFFFF;" parent="1" vertex="1">
          <mxGeometry x="-387" y="-114" width="14" height="14" as="geometry" />
        </mxCell>
        <mxCell id="_PlpnI5WxaQTCf_P7hRN-9" value="" style="endArrow=none;html=1;rounded=0;entryX=0;entryY=0.5;entryDx=0;entryDy=0;exitX=0.989;exitY=0.127;exitDx=0;exitDy=0;exitPerimeter=0;" parent="1" source="c_5whPo5ll7_a1Px60WQ-2" target="_PlpnI5WxaQTCf_P7hRN-8" edge="1">
          <mxGeometry width="50" height="50" relative="1" as="geometry">
            <mxPoint x="-451" y="-105.5" as="sourcePoint" />
            <mxPoint x="-248" y="-109.5" as="targetPoint" />
          </mxGeometry>
        </mxCell>
        <mxCell id="_PlpnI5WxaQTCf_P7hRN-10" value="" style="ellipse;whiteSpace=wrap;html=1;aspect=fixed;fillColor=#FFFFFF;" parent="1" vertex="1">
          <mxGeometry x="-630" y="-84" width="14" height="14" as="geometry" />
        </mxCell>
        <mxCell id="_PlpnI5WxaQTCf_P7hRN-11" value="" style="endArrow=none;html=1;rounded=0;exitX=1;exitY=0.5;exitDx=0;exitDy=0;entryX=0.01;entryY=0.685;entryDx=0;entryDy=0;entryPerimeter=0;" parent="1" source="_PlpnI5WxaQTCf_P7hRN-10" target="c_5whPo5ll7_a1Px60WQ-2" edge="1">
          <mxGeometry width="50" height="50" relative="1" as="geometry">
            <mxPoint x="-992" y="-133.5" as="sourcePoint" />
            <mxPoint x="-992" y="-65.49999999999989" as="targetPoint" />
          </mxGeometry>
        </mxCell>
        <mxCell id="_PlpnI5WxaQTCf_P7hRN-12" value="" style="ellipse;whiteSpace=wrap;html=1;aspect=fixed;fillColor=#000000;" parent="1" vertex="1">
          <mxGeometry x="-538" y="648" width="14" height="14" as="geometry" />
        </mxCell>
        <mxCell id="_PlpnI5WxaQTCf_P7hRN-13" value="" style="endArrow=none;html=1;rounded=0;entryX=0.5;entryY=0;entryDx=0;entryDy=0;exitX=0.25;exitY=1;exitDx=0;exitDy=0;" parent="1" target="_PlpnI5WxaQTCf_P7hRN-12" edge="1">
          <mxGeometry width="50" height="50" relative="1" as="geometry">
            <mxPoint x="-531" y="616" as="sourcePoint" />
            <mxPoint x="-453" y="632" as="targetPoint" />
          </mxGeometry>
        </mxCell>
        <mxCell id="_PlpnI5WxaQTCf_P7hRN-22" value="" style="ellipse;whiteSpace=wrap;html=1;aspect=fixed;fillColor=#000000;direction=east;" parent="1" vertex="1">
          <mxGeometry x="-987" y="493.5" width="14" height="14" as="geometry" />
        </mxCell>
        <mxCell id="_PlpnI5WxaQTCf_P7hRN-24" value="" style="ellipse;whiteSpace=wrap;html=1;aspect=fixed;fillColor=#FFFFFF;direction=east;" parent="1" vertex="1">
          <mxGeometry x="-1043" y="494" width="14" height="14" as="geometry" />
        </mxCell>
        <mxCell id="_PlpnI5WxaQTCf_P7hRN-26" value="" style="ellipse;whiteSpace=wrap;html=1;aspect=fixed;fillColor=#FFFFFF;direction=east;" parent="1" vertex="1">
          <mxGeometry x="-1043" y="662" width="14" height="14" as="geometry" />
        </mxCell>
        <mxCell id="_PlpnI5WxaQTCf_P7hRN-27" value="" style="endArrow=none;html=1;rounded=0;entryX=0.5;entryY=0;entryDx=0;entryDy=0;exitX=0.25;exitY=1;exitDx=0;exitDy=0;" parent="1" source="2d3XpBuDdh4GmcxXIJYH-45" target="_PlpnI5WxaQTCf_P7hRN-26" edge="1">
          <mxGeometry width="50" height="50" relative="1" as="geometry">
            <mxPoint x="-1220" y="551" as="sourcePoint" />
            <mxPoint x="-1107" y="525.5" as="targetPoint" />
          </mxGeometry>
        </mxCell>
        <mxCell id="_PlpnI5WxaQTCf_P7hRN-30" value="" style="ellipse;whiteSpace=wrap;html=1;aspect=fixed;fillColor=#FFFFFF;direction=east;" parent="1" vertex="1">
          <mxGeometry x="-987" y="662" width="14" height="14" as="geometry" />
        </mxCell>
        <mxCell id="_PlpnI5WxaQTCf_P7hRN-31" value="" style="endArrow=none;html=1;rounded=0;entryX=0.5;entryY=0;entryDx=0;entryDy=0;exitX=0.75;exitY=1;exitDx=0;exitDy=0;" parent="1" source="2d3XpBuDdh4GmcxXIJYH-45" target="_PlpnI5WxaQTCf_P7hRN-30" edge="1">
          <mxGeometry width="50" height="50" relative="1" as="geometry">
            <mxPoint x="-1220" y="581" as="sourcePoint" />
            <mxPoint x="-1107" y="555.5" as="targetPoint" />
          </mxGeometry>
        </mxCell>
        <mxCell id="_PlpnI5WxaQTCf_P7hRN-32" value="" style="ellipse;whiteSpace=wrap;html=1;aspect=fixed;fillColor=#FFFFFF;direction=east;" parent="1" vertex="1">
          <mxGeometry x="-1120" y="549.5" width="14" height="14" as="geometry" />
        </mxCell>
        <mxCell id="_PlpnI5WxaQTCf_P7hRN-33" value="" style="endArrow=none;html=1;rounded=0;exitX=0;exitY=0.25;exitDx=0;exitDy=0;" parent="1" source="2d3XpBuDdh4GmcxXIJYH-45" edge="1">
          <mxGeometry width="50" height="50" relative="1" as="geometry">
            <mxPoint x="-1243" y="462.5" as="sourcePoint" />
            <mxPoint x="-1106" y="560" as="targetPoint" />
          </mxGeometry>
        </mxCell>
        <mxCell id="_PlpnI5WxaQTCf_P7hRN-34" value="" style="ellipse;whiteSpace=wrap;html=1;aspect=fixed;fillColor=#FFFFFF;direction=east;" parent="1" vertex="1">
          <mxGeometry x="-1120" y="611" width="14" height="14" as="geometry" />
        </mxCell>
        <mxCell id="_PlpnI5WxaQTCf_P7hRN-36" value="" style="ellipse;whiteSpace=wrap;html=1;aspect=fixed;fillColor=#FFFFFF;" parent="1" vertex="1">
          <mxGeometry x="-537" y="513.5" width="14" height="14" as="geometry" />
        </mxCell>
        <mxCell id="_PlpnI5WxaQTCf_P7hRN-37" value="" style="endArrow=none;html=1;rounded=0;exitX=0.5;exitY=1;exitDx=0;exitDy=0;" parent="1" source="_PlpnI5WxaQTCf_P7hRN-36" edge="1">
          <mxGeometry width="50" height="50" relative="1" as="geometry">
            <mxPoint x="-530" y="501.5" as="sourcePoint" />
            <mxPoint x="-530" y="560" as="targetPoint" />
          </mxGeometry>
        </mxCell>
        <mxCell id="_PlpnI5WxaQTCf_P7hRN-38" value="" style="ellipse;whiteSpace=wrap;html=1;aspect=fixed;fillColor=#FFFFFF;" parent="1" vertex="1">
          <mxGeometry x="-484" y="513.5" width="14" height="14" as="geometry" />
        </mxCell>
        <mxCell id="_PlpnI5WxaQTCf_P7hRN-39" value="" style="endArrow=none;html=1;rounded=0;exitX=0.5;exitY=1;exitDx=0;exitDy=0;entryX=0.25;entryY=0;entryDx=0;entryDy=0;" parent="1" source="_PlpnI5WxaQTCf_P7hRN-38" edge="1">
          <mxGeometry width="50" height="50" relative="1" as="geometry">
            <mxPoint x="-477" y="499.5" as="sourcePoint" />
            <mxPoint x="-477" y="560" as="targetPoint" />
          </mxGeometry>
        </mxCell>
        <mxCell id="_PlpnI5WxaQTCf_P7hRN-51" value="" style="ellipse;whiteSpace=wrap;html=1;aspect=fixed;fillColor=#FFFFFF;" parent="1" vertex="1">
          <mxGeometry x="-16" y="302.25" width="14" height="14" as="geometry" />
        </mxCell>
        <mxCell id="_PlpnI5WxaQTCf_P7hRN-52" value="" style="endArrow=none;html=1;rounded=0;exitX=0.5;exitY=1;exitDx=0;exitDy=0;entryX=0.25;entryY=0;entryDx=0;entryDy=0;" parent="1" source="_PlpnI5WxaQTCf_P7hRN-51" edge="1">
          <mxGeometry width="50" height="50" relative="1" as="geometry">
            <mxPoint x="-9" y="288.25" as="sourcePoint" />
            <mxPoint x="-9" y="348.75" as="targetPoint" />
          </mxGeometry>
        </mxCell>
        <mxCell id="_PlpnI5WxaQTCf_P7hRN-55" value="" style="ellipse;whiteSpace=wrap;html=1;aspect=fixed;fillColor=none;" parent="1" vertex="1">
          <mxGeometry x="-81" y="423.25" width="14" height="14" as="geometry" />
        </mxCell>
        <mxCell id="_PlpnI5WxaQTCf_P7hRN-56" value="" style="endArrow=none;html=1;rounded=0;entryX=0.5;entryY=0;entryDx=0;entryDy=0;exitX=0.5;exitY=0;exitDx=0;exitDy=0;" parent="1" source="_PlpnI5WxaQTCf_P7hRN-55" edge="1">
          <mxGeometry width="50" height="50" relative="1" as="geometry">
            <mxPoint x="-75.99599999999982" y="335.50749999999994" as="sourcePoint" />
            <mxPoint x="-75.95" y="372.75" as="targetPoint" />
          </mxGeometry>
        </mxCell>
        <mxCell id="_PlpnI5WxaQTCf_P7hRN-61" value="" style="ellipse;whiteSpace=wrap;html=1;aspect=fixed;fillColor=#FFFFFF;" parent="1" vertex="1">
          <mxGeometry x="450" y="231.5" width="14" height="14" as="geometry" />
        </mxCell>
        <mxCell id="_PlpnI5WxaQTCf_P7hRN-62" value="" style="endArrow=none;html=1;rounded=0;exitX=0.5;exitY=1;exitDx=0;exitDy=0;entryX=0.25;entryY=0;entryDx=0;entryDy=0;" parent="1" source="_PlpnI5WxaQTCf_P7hRN-61" edge="1">
          <mxGeometry width="50" height="50" relative="1" as="geometry">
            <mxPoint x="457" y="217.5" as="sourcePoint" />
            <mxPoint x="457" y="278" as="targetPoint" />
          </mxGeometry>
        </mxCell>
        <mxCell id="_PlpnI5WxaQTCf_P7hRN-63" value="" style="ellipse;whiteSpace=wrap;html=1;aspect=fixed;fillColor=#FFFFFF;" parent="1" vertex="1">
          <mxGeometry x="468" y="186.75" width="14" height="14" as="geometry" />
        </mxCell>
        <mxCell id="_PlpnI5WxaQTCf_P7hRN-64" value="" style="endArrow=none;html=1;rounded=0;exitX=0.5;exitY=1;exitDx=0;exitDy=0;entryX=0.25;entryY=0;entryDx=0;entryDy=0;" parent="1" source="_PlpnI5WxaQTCf_P7hRN-63" target="2d3XpBuDdh4GmcxXIJYH-4" edge="1">
          <mxGeometry width="50" height="50" relative="1" as="geometry">
            <mxPoint x="475" y="172.75" as="sourcePoint" />
            <mxPoint x="475" y="233.25" as="targetPoint" />
          </mxGeometry>
        </mxCell>
        <mxCell id="_PlpnI5WxaQTCf_P7hRN-65" value="" style="ellipse;whiteSpace=wrap;html=1;aspect=fixed;fillColor=#FFFFFF;" parent="1" vertex="1">
          <mxGeometry x="491" y="231.5" width="14" height="14" as="geometry" />
        </mxCell>
        <mxCell id="_PlpnI5WxaQTCf_P7hRN-66" value="" style="endArrow=none;html=1;rounded=0;exitX=0.5;exitY=1;exitDx=0;exitDy=0;entryX=0.25;entryY=0;entryDx=0;entryDy=0;" parent="1" source="_PlpnI5WxaQTCf_P7hRN-65" edge="1">
          <mxGeometry width="50" height="50" relative="1" as="geometry">
            <mxPoint x="498" y="217.5" as="sourcePoint" />
            <mxPoint x="498" y="278" as="targetPoint" />
          </mxGeometry>
        </mxCell>
        <mxCell id="_PlpnI5WxaQTCf_P7hRN-67" value="" style="ellipse;whiteSpace=wrap;html=1;aspect=fixed;fillColor=#FFFFFF;" parent="1" vertex="1">
          <mxGeometry x="519" y="211" width="14" height="14" as="geometry" />
        </mxCell>
        <mxCell id="_PlpnI5WxaQTCf_P7hRN-68" value="" style="endArrow=none;html=1;rounded=0;exitX=0.5;exitY=1;exitDx=0;exitDy=0;entryX=0.695;entryY=0.001;entryDx=0;entryDy=0;entryPerimeter=0;" parent="1" source="_PlpnI5WxaQTCf_P7hRN-67" target="2d3XpBuDdh4GmcxXIJYH-4" edge="1">
          <mxGeometry width="50" height="50" relative="1" as="geometry">
            <mxPoint x="526" y="212.5" as="sourcePoint" />
            <mxPoint x="526" y="273" as="targetPoint" />
          </mxGeometry>
        </mxCell>
        <mxCell id="_PlpnI5WxaQTCf_P7hRN-69" value="" style="ellipse;whiteSpace=wrap;html=1;aspect=fixed;fillColor=#FFFFFF;" parent="1" vertex="1">
          <mxGeometry x="546" y="166" width="14" height="14" as="geometry" />
        </mxCell>
        <mxCell id="_PlpnI5WxaQTCf_P7hRN-70" value="" style="endArrow=none;html=1;rounded=0;exitX=0.5;exitY=1;exitDx=0;exitDy=0;entryX=0.25;entryY=0;entryDx=0;entryDy=0;" parent="1" source="_PlpnI5WxaQTCf_P7hRN-69" edge="1">
          <mxGeometry width="50" height="50" relative="1" as="geometry">
            <mxPoint x="553" y="217.5" as="sourcePoint" />
            <mxPoint x="553" y="278" as="targetPoint" />
          </mxGeometry>
        </mxCell>
        <mxCell id="_PlpnI5WxaQTCf_P7hRN-71" value="" style="ellipse;whiteSpace=wrap;html=1;aspect=fixed;fillColor=#FFFFFF;" parent="1" vertex="1">
          <mxGeometry x="406" y="276" width="14" height="14" as="geometry" />
        </mxCell>
        <mxCell id="_PlpnI5WxaQTCf_P7hRN-72" value="" style="endArrow=none;html=1;rounded=0;entryX=1;entryY=0.5;entryDx=0;entryDy=0;" parent="1" target="_PlpnI5WxaQTCf_P7hRN-71" edge="1">
          <mxGeometry width="50" height="50" relative="1" as="geometry">
            <mxPoint x="448" y="283" as="sourcePoint" />
            <mxPoint x="413" y="322.5" as="targetPoint" />
          </mxGeometry>
        </mxCell>
        <mxCell id="_PlpnI5WxaQTCf_P7hRN-73" value="" style="ellipse;whiteSpace=wrap;html=1;aspect=fixed;fillColor=#FFFFFF;" parent="1" vertex="1">
          <mxGeometry x="406" y="294" width="14" height="14" as="geometry" />
        </mxCell>
        <mxCell id="_PlpnI5WxaQTCf_P7hRN-74" value="" style="endArrow=none;html=1;rounded=0;entryX=1;entryY=0.5;entryDx=0;entryDy=0;" parent="1" target="_PlpnI5WxaQTCf_P7hRN-73" edge="1">
          <mxGeometry width="50" height="50" relative="1" as="geometry">
            <mxPoint x="448" y="301" as="sourcePoint" />
            <mxPoint x="413" y="340.5" as="targetPoint" />
          </mxGeometry>
        </mxCell>
        <mxCell id="_PlpnI5WxaQTCf_P7hRN-75" value="" style="ellipse;whiteSpace=wrap;html=1;aspect=fixed;fillColor=#FFFFFF;" parent="1" vertex="1">
          <mxGeometry x="406" y="318" width="14" height="14" as="geometry" />
        </mxCell>
        <mxCell id="_PlpnI5WxaQTCf_P7hRN-76" value="" style="endArrow=none;html=1;rounded=0;entryX=1;entryY=0.5;entryDx=0;entryDy=0;" parent="1" target="_PlpnI5WxaQTCf_P7hRN-75" edge="1">
          <mxGeometry width="50" height="50" relative="1" as="geometry">
            <mxPoint x="448" y="325" as="sourcePoint" />
            <mxPoint x="413" y="364.5" as="targetPoint" />
          </mxGeometry>
        </mxCell>
        <mxCell id="_PlpnI5WxaQTCf_P7hRN-77" value="" style="ellipse;whiteSpace=wrap;html=1;aspect=fixed;fillColor=#FFFFFF;" parent="1" vertex="1">
          <mxGeometry x="464" y="366" width="14" height="14" as="geometry" />
        </mxCell>
        <mxCell id="_PlpnI5WxaQTCf_P7hRN-78" value="" style="endArrow=none;html=1;rounded=0;entryX=0.5;entryY=0;entryDx=0;entryDy=0;exitX=0.25;exitY=1;exitDx=0;exitDy=0;" parent="1" target="_PlpnI5WxaQTCf_P7hRN-77" edge="1">
          <mxGeometry width="50" height="50" relative="1" as="geometry">
            <mxPoint x="471" y="334" as="sourcePoint" />
            <mxPoint x="549" y="350" as="targetPoint" />
          </mxGeometry>
        </mxCell>
        <mxCell id="_PlpnI5WxaQTCf_P7hRN-79" value="" style="ellipse;whiteSpace=wrap;html=1;aspect=fixed;fillColor=#FFFFFF;" parent="1" vertex="1">
          <mxGeometry x="483" y="394" width="14" height="14" as="geometry" />
        </mxCell>
        <mxCell id="_PlpnI5WxaQTCf_P7hRN-80" value="" style="endArrow=none;html=1;rounded=0;entryX=0.5;entryY=0;entryDx=0;entryDy=0;exitX=0.25;exitY=1;exitDx=0;exitDy=0;" parent="1" target="_PlpnI5WxaQTCf_P7hRN-79" edge="1">
          <mxGeometry width="50" height="50" relative="1" as="geometry">
            <mxPoint x="490" y="334" as="sourcePoint" />
            <mxPoint x="568" y="350" as="targetPoint" />
          </mxGeometry>
        </mxCell>
        <mxCell id="_PlpnI5WxaQTCf_P7hRN-81" value="" style="ellipse;whiteSpace=wrap;html=1;aspect=fixed;fillColor=#FFFFFF;" parent="1" vertex="1">
          <mxGeometry x="519" y="367" width="14" height="14" as="geometry" />
        </mxCell>
        <mxCell id="_PlpnI5WxaQTCf_P7hRN-82" value="" style="endArrow=none;html=1;rounded=0;entryX=0.5;entryY=0;entryDx=0;entryDy=0;exitX=0.25;exitY=1;exitDx=0;exitDy=0;" parent="1" target="_PlpnI5WxaQTCf_P7hRN-81" edge="1">
          <mxGeometry width="50" height="50" relative="1" as="geometry">
            <mxPoint x="526" y="335" as="sourcePoint" />
            <mxPoint x="604" y="351" as="targetPoint" />
          </mxGeometry>
        </mxCell>
        <mxCell id="_PlpnI5WxaQTCf_P7hRN-83" value="" style="ellipse;whiteSpace=wrap;html=1;aspect=fixed;fillColor=#000000;" parent="1" vertex="1">
          <mxGeometry x="546" y="392" width="14" height="14" as="geometry" />
        </mxCell>
        <mxCell id="_PlpnI5WxaQTCf_P7hRN-84" value="" style="endArrow=none;html=1;rounded=0;entryX=0.5;entryY=0;entryDx=0;entryDy=0;exitX=0.25;exitY=1;exitDx=0;exitDy=0;" parent="1" target="_PlpnI5WxaQTCf_P7hRN-83" edge="1">
          <mxGeometry width="50" height="50" relative="1" as="geometry">
            <mxPoint x="553" y="335" as="sourcePoint" />
            <mxPoint x="631" y="351" as="targetPoint" />
          </mxGeometry>
        </mxCell>
        <mxCell id="_PlpnI5WxaQTCf_P7hRN-89" value="" style="ellipse;whiteSpace=wrap;html=1;aspect=fixed;fillColor=#FFFFFF;" parent="1" vertex="1">
          <mxGeometry x="-128.5" y="35" width="14" height="14" as="geometry" />
        </mxCell>
        <mxCell id="_PlpnI5WxaQTCf_P7hRN-90" value="" style="endArrow=none;html=1;rounded=0;exitX=1;exitY=0.25;exitDx=0;exitDy=0;" parent="1" source="_PPmYWHMmeneKtp0pq9--8" edge="1">
          <mxGeometry width="50" height="50" relative="1" as="geometry">
            <mxPoint x="-81.95000000000027" y="192" as="sourcePoint" />
            <mxPoint x="-127.95000000000005" y="41" as="targetPoint" />
          </mxGeometry>
        </mxCell>
        <mxCell id="_PlpnI5WxaQTCf_P7hRN-101" value="" style="ellipse;whiteSpace=wrap;html=1;aspect=fixed;fillColor=#000000;" parent="1" vertex="1">
          <mxGeometry x="773" y="737.5" width="14" height="14" as="geometry" />
        </mxCell>
        <mxCell id="_PlpnI5WxaQTCf_P7hRN-102" value="" style="endArrow=none;html=1;rounded=0;exitX=0.5;exitY=1;exitDx=0;exitDy=0;entryX=0.25;entryY=0;entryDx=0;entryDy=0;" parent="1" source="_PlpnI5WxaQTCf_P7hRN-101" edge="1">
          <mxGeometry width="50" height="50" relative="1" as="geometry">
            <mxPoint x="780" y="723.5" as="sourcePoint" />
            <mxPoint x="780" y="784" as="targetPoint" />
          </mxGeometry>
        </mxCell>
        <mxCell id="_PlpnI5WxaQTCf_P7hRN-103" value="" style="ellipse;whiteSpace=wrap;html=1;aspect=fixed;fillColor=#FFFFFF;" parent="1" vertex="1">
          <mxGeometry x="963" y="493" width="14" height="14" as="geometry" />
        </mxCell>
        <mxCell id="_PlpnI5WxaQTCf_P7hRN-104" value="" style="endArrow=none;html=1;rounded=0;exitX=0.5;exitY=1;exitDx=0;exitDy=0;entryX=0.5;entryY=0;entryDx=0;entryDy=0;" parent="1" source="_PlpnI5WxaQTCf_P7hRN-103" edge="1">
          <mxGeometry width="50" height="50" relative="1" as="geometry">
            <mxPoint x="970" y="479" as="sourcePoint" />
            <mxPoint x="970" y="542" as="targetPoint" />
          </mxGeometry>
        </mxCell>
        <mxCell id="_PlpnI5WxaQTCf_P7hRN-105" value="" style="ellipse;whiteSpace=wrap;html=1;aspect=fixed;fillColor=#FFFFFF;" parent="1" vertex="1">
          <mxGeometry x="1058" y="563.5" width="14" height="14" as="geometry" />
        </mxCell>
        <mxCell id="_PlpnI5WxaQTCf_P7hRN-106" value="" style="endArrow=none;html=1;rounded=0;entryX=0;entryY=0.5;entryDx=0;entryDy=0;exitX=1;exitY=0.5;exitDx=0;exitDy=0;" parent="1" source="Q12W83flebK6DkI4KkJT-18" target="_PlpnI5WxaQTCf_P7hRN-105" edge="1">
          <mxGeometry width="50" height="50" relative="1" as="geometry">
            <mxPoint x="1036" y="574" as="sourcePoint" />
            <mxPoint x="1143" y="545" as="targetPoint" />
          </mxGeometry>
        </mxCell>
        <mxCell id="_PlpnI5WxaQTCf_P7hRN-117" value="" style="ellipse;whiteSpace=wrap;html=1;aspect=fixed;fillColor=#FFFFFF;" parent="1" vertex="1">
          <mxGeometry x="-12" y="423.25" width="14" height="14" as="geometry" />
        </mxCell>
        <mxCell id="_PlpnI5WxaQTCf_P7hRN-118" value="" style="endArrow=none;html=1;rounded=0;exitX=0.25;exitY=1;exitDx=0;exitDy=0;entryX=0.5;entryY=0;entryDx=0;entryDy=0;" parent="1" target="_PlpnI5WxaQTCf_P7hRN-117" edge="1">
          <mxGeometry width="50" height="50" relative="1" as="geometry">
            <mxPoint x="-5" y="391.25" as="sourcePoint" />
            <mxPoint x="-5" y="425.25" as="targetPoint" />
          </mxGeometry>
        </mxCell>
        <mxCell id="_PlpnI5WxaQTCf_P7hRN-123" value="" style="ellipse;whiteSpace=wrap;html=1;aspect=fixed;fillColor=#FFFFFF;" parent="1" vertex="1">
          <mxGeometry x="355" y="1073.5" width="14" height="14" as="geometry" />
        </mxCell>
        <mxCell id="_PlpnI5WxaQTCf_P7hRN-124" value="" style="endArrow=none;html=1;rounded=0;exitX=0.5;exitY=1;exitDx=0;exitDy=0;entryX=0.25;entryY=0;entryDx=0;entryDy=0;" parent="1" source="_PlpnI5WxaQTCf_P7hRN-123" edge="1">
          <mxGeometry width="50" height="50" relative="1" as="geometry">
            <mxPoint x="362" y="1059.5" as="sourcePoint" />
            <mxPoint x="362" y="1120" as="targetPoint" />
          </mxGeometry>
        </mxCell>
        <mxCell id="_PlpnI5WxaQTCf_P7hRN-125" value="" style="ellipse;whiteSpace=wrap;html=1;aspect=fixed;fillColor=#FFFFFF;" parent="1" vertex="1">
          <mxGeometry x="413" y="1073.5" width="14" height="14" as="geometry" />
        </mxCell>
        <mxCell id="_PlpnI5WxaQTCf_P7hRN-126" value="" style="endArrow=none;html=1;rounded=0;exitX=0.5;exitY=1;exitDx=0;exitDy=0;entryX=0.25;entryY=0;entryDx=0;entryDy=0;" parent="1" source="_PlpnI5WxaQTCf_P7hRN-125" edge="1">
          <mxGeometry width="50" height="50" relative="1" as="geometry">
            <mxPoint x="420" y="1059.5" as="sourcePoint" />
            <mxPoint x="420" y="1120" as="targetPoint" />
          </mxGeometry>
        </mxCell>
        <mxCell id="_PlpnI5WxaQTCf_P7hRN-127" value="" style="ellipse;whiteSpace=wrap;html=1;aspect=fixed;fillColor=#FFFFFF;" parent="1" vertex="1">
          <mxGeometry x="415" y="1208" width="14" height="14" as="geometry" />
        </mxCell>
        <mxCell id="_PlpnI5WxaQTCf_P7hRN-128" value="" style="endArrow=none;html=1;rounded=0;entryX=0.5;entryY=0;entryDx=0;entryDy=0;exitX=0.25;exitY=1;exitDx=0;exitDy=0;" parent="1" target="_PlpnI5WxaQTCf_P7hRN-127" edge="1">
          <mxGeometry width="50" height="50" relative="1" as="geometry">
            <mxPoint x="422" y="1176" as="sourcePoint" />
            <mxPoint x="500" y="1192" as="targetPoint" />
          </mxGeometry>
        </mxCell>
        <mxCell id="_PlpnI5WxaQTCf_P7hRN-129" value="" style="ellipse;whiteSpace=wrap;html=1;aspect=fixed;fillColor=#FFFFFF;" parent="1" vertex="1">
          <mxGeometry x="355" y="1208" width="14" height="14" as="geometry" />
        </mxCell>
        <mxCell id="_PlpnI5WxaQTCf_P7hRN-130" value="" style="endArrow=none;html=1;rounded=0;entryX=0.5;entryY=0;entryDx=0;entryDy=0;exitX=0.25;exitY=1;exitDx=0;exitDy=0;" parent="1" target="_PlpnI5WxaQTCf_P7hRN-129" edge="1">
          <mxGeometry width="50" height="50" relative="1" as="geometry">
            <mxPoint x="362" y="1176" as="sourcePoint" />
            <mxPoint x="440" y="1192" as="targetPoint" />
          </mxGeometry>
        </mxCell>
        <mxCell id="_PlpnI5WxaQTCf_P7hRN-131" value="" style="ellipse;whiteSpace=wrap;html=1;aspect=fixed;fillColor=#FFFFFF;" parent="1" vertex="1">
          <mxGeometry x="476" y="1124" width="14" height="14" as="geometry" />
        </mxCell>
        <mxCell id="_PlpnI5WxaQTCf_P7hRN-132" value="" style="endArrow=none;html=1;rounded=0;entryX=0;entryY=0.5;entryDx=0;entryDy=0;" parent="1" target="_PlpnI5WxaQTCf_P7hRN-131" edge="1">
          <mxGeometry width="50" height="50" relative="1" as="geometry">
            <mxPoint x="448" y="1131" as="sourcePoint" />
            <mxPoint x="561" y="1105.5" as="targetPoint" />
          </mxGeometry>
        </mxCell>
        <mxCell id="_PlpnI5WxaQTCf_P7hRN-133" value="" style="ellipse;whiteSpace=wrap;html=1;aspect=fixed;fillColor=#FFFFFF;" parent="1" vertex="1">
          <mxGeometry x="476" y="1155.25" width="14" height="14" as="geometry" />
        </mxCell>
        <mxCell id="_PlpnI5WxaQTCf_P7hRN-134" value="" style="endArrow=none;html=1;rounded=0;entryX=0;entryY=0.5;entryDx=0;entryDy=0;" parent="1" target="_PlpnI5WxaQTCf_P7hRN-133" edge="1">
          <mxGeometry width="50" height="50" relative="1" as="geometry">
            <mxPoint x="448" y="1162.25" as="sourcePoint" />
            <mxPoint x="561" y="1136.75" as="targetPoint" />
          </mxGeometry>
        </mxCell>
        <mxCell id="_PlpnI5WxaQTCf_P7hRN-141" value="" style="ellipse;whiteSpace=wrap;html=1;aspect=fixed;fillColor=#000000;" parent="1" vertex="1">
          <mxGeometry x="-603" y="1156" width="14" height="14" as="geometry" />
        </mxCell>
        <mxCell id="_PlpnI5WxaQTCf_P7hRN-142" value="" style="endArrow=none;html=1;rounded=0;entryX=1;entryY=0.5;entryDx=0;entryDy=0;" parent="1" target="_PlpnI5WxaQTCf_P7hRN-141" edge="1">
          <mxGeometry width="50" height="50" relative="1" as="geometry">
            <mxPoint x="-561" y="1163" as="sourcePoint" />
            <mxPoint x="-596" y="1202.5" as="targetPoint" />
          </mxGeometry>
        </mxCell>
        <mxCell id="_PlpnI5WxaQTCf_P7hRN-143" value="" style="ellipse;whiteSpace=wrap;html=1;aspect=fixed;fillColor=#FFFFFF;" parent="1" vertex="1">
          <mxGeometry x="-537" y="1073.5" width="14" height="14" as="geometry" />
        </mxCell>
        <mxCell id="_PlpnI5WxaQTCf_P7hRN-144" value="" style="endArrow=none;html=1;rounded=0;exitX=0.5;exitY=1;exitDx=0;exitDy=0;entryX=0.25;entryY=0;entryDx=0;entryDy=0;" parent="1" source="_PlpnI5WxaQTCf_P7hRN-143" edge="1">
          <mxGeometry width="50" height="50" relative="1" as="geometry">
            <mxPoint x="-530" y="1059.5" as="sourcePoint" />
            <mxPoint x="-530" y="1120" as="targetPoint" />
          </mxGeometry>
        </mxCell>
        <mxCell id="_PlpnI5WxaQTCf_P7hRN-145" value="" style="ellipse;whiteSpace=wrap;html=1;aspect=fixed;fillColor=#FFFFFF;" parent="1" vertex="1">
          <mxGeometry x="-484" y="1073.5" width="14" height="14" as="geometry" />
        </mxCell>
        <mxCell id="_PlpnI5WxaQTCf_P7hRN-146" value="" style="endArrow=none;html=1;rounded=0;exitX=0.5;exitY=1;exitDx=0;exitDy=0;entryX=0.25;entryY=0;entryDx=0;entryDy=0;" parent="1" source="_PlpnI5WxaQTCf_P7hRN-145" edge="1">
          <mxGeometry width="50" height="50" relative="1" as="geometry">
            <mxPoint x="-477" y="1059.5" as="sourcePoint" />
            <mxPoint x="-477" y="1120" as="targetPoint" />
          </mxGeometry>
        </mxCell>
        <mxCell id="_PlpnI5WxaQTCf_P7hRN-147" value="" style="ellipse;whiteSpace=wrap;html=1;aspect=fixed;fillColor=#FFFFFF;" parent="1" vertex="1">
          <mxGeometry x="-481" y="1208" width="14" height="14" as="geometry" />
        </mxCell>
        <mxCell id="_PlpnI5WxaQTCf_P7hRN-148" value="" style="endArrow=none;html=1;rounded=0;entryX=0.5;entryY=0;entryDx=0;entryDy=0;exitX=0.25;exitY=1;exitDx=0;exitDy=0;" parent="1" target="_PlpnI5WxaQTCf_P7hRN-147" edge="1">
          <mxGeometry width="50" height="50" relative="1" as="geometry">
            <mxPoint x="-474" y="1176" as="sourcePoint" />
            <mxPoint x="-396" y="1192" as="targetPoint" />
          </mxGeometry>
        </mxCell>
        <mxCell id="_PlpnI5WxaQTCf_P7hRN-149" value="" style="ellipse;whiteSpace=wrap;html=1;aspect=fixed;fillColor=#FFFFFF;" parent="1" vertex="1">
          <mxGeometry x="-537" y="1208" width="14" height="14" as="geometry" />
        </mxCell>
        <mxCell id="_PlpnI5WxaQTCf_P7hRN-150" value="" style="endArrow=none;html=1;rounded=0;entryX=0.5;entryY=0;entryDx=0;entryDy=0;exitX=0.25;exitY=1;exitDx=0;exitDy=0;" parent="1" target="_PlpnI5WxaQTCf_P7hRN-149" edge="1">
          <mxGeometry width="50" height="50" relative="1" as="geometry">
            <mxPoint x="-530" y="1176" as="sourcePoint" />
            <mxPoint x="-452" y="1192" as="targetPoint" />
          </mxGeometry>
        </mxCell>
        <mxCell id="_PPmYWHMmeneKtp0pq9--5" value="" style="endArrow=none;html=1;rounded=0;entryX=1;entryY=0.5;entryDx=0;entryDy=0;" parent="1" target="_PPmYWHMmeneKtp0pq9--6" edge="1">
          <mxGeometry width="50" height="50" relative="1" as="geometry">
            <mxPoint x="434" y="1098" as="sourcePoint" />
            <mxPoint x="346" y="1148" as="targetPoint" />
          </mxGeometry>
        </mxCell>
        <mxCell id="_PPmYWHMmeneKtp0pq9--6" value="" style="ellipse;whiteSpace=wrap;html=1;aspect=fixed;fillColor=#000000;" parent="1" vertex="1">
          <mxGeometry x="332" y="1091" width="14" height="14" as="geometry" />
        </mxCell>
        <mxCell id="_PPmYWHMmeneKtp0pq9--8" value="&lt;b&gt;&lt;font style=&quot;font-size: 15px;&quot;&gt;VALUTAZIONE&lt;/font&gt;&lt;/b&gt;" style="rounded=1;arcSize=10;whiteSpace=wrap;html=1;align=center;" parent="1" vertex="1">
          <mxGeometry x="-281.95000000000005" y="27" width="112" height="56" as="geometry" />
        </mxCell>
        <mxCell id="_PPmYWHMmeneKtp0pq9--11" value="commento" style="text;html=1;align=center;verticalAlign=middle;whiteSpace=wrap;rounded=0;" parent="1" vertex="1">
          <mxGeometry x="-114.5" y="55" width="60" height="30" as="geometry" />
        </mxCell>
        <mxCell id="_PPmYWHMmeneKtp0pq9--12" value="" style="ellipse;whiteSpace=wrap;html=1;aspect=fixed;fillColor=#FFFFFF;" parent="1" vertex="1">
          <mxGeometry x="-128.5" y="63.5" width="14" height="14" as="geometry" />
        </mxCell>
        <mxCell id="_PPmYWHMmeneKtp0pq9--13" value="" style="endArrow=none;html=1;rounded=0;exitX=1;exitY=0.25;exitDx=0;exitDy=0;" parent="1" edge="1">
          <mxGeometry width="50" height="50" relative="1" as="geometry">
            <mxPoint x="-169.95000000000005" y="69.5" as="sourcePoint" />
            <mxPoint x="-127.95000000000005" y="69.5" as="targetPoint" />
          </mxGeometry>
        </mxCell>
        <mxCell id="_PPmYWHMmeneKtp0pq9--14" value="" style="ellipse;whiteSpace=wrap;html=1;aspect=fixed;fillColor=#FFFFFF;direction=north;flipV=1;flipH=1;" parent="1" vertex="1">
          <mxGeometry x="-232.95000000000005" y="-28.25" width="14" height="14" as="geometry" />
        </mxCell>
        <mxCell id="_PPmYWHMmeneKtp0pq9--15" value="" style="endArrow=none;html=1;rounded=0;entryX=0.492;entryY=0.006;entryDx=0;entryDy=0;entryPerimeter=0;exitX=0.975;exitY=0.561;exitDx=0;exitDy=0;exitPerimeter=0;" parent="1" source="_PPmYWHMmeneKtp0pq9--14" target="_PPmYWHMmeneKtp0pq9--8" edge="1">
          <mxGeometry width="50" height="50" relative="1" as="geometry">
            <mxPoint x="-226.95000000000005" y="-13.25" as="sourcePoint" />
            <mxPoint x="-198.95000000000005" y="-13.025294117646837" as="targetPoint" />
          </mxGeometry>
        </mxCell>
        <mxCell id="_PPmYWHMmeneKtp0pq9--16" value="" style="endArrow=none;html=1;rounded=0;entryX=0.483;entryY=0.996;entryDx=0;entryDy=0;entryPerimeter=0;" parent="1" target="_PPmYWHMmeneKtp0pq9--8" edge="1">
          <mxGeometry width="50" height="50" relative="1" as="geometry">
            <mxPoint x="-226.95000000000005" y="126.75" as="sourcePoint" />
            <mxPoint x="-226.95000000000005" y="84.75" as="targetPoint" />
          </mxGeometry>
        </mxCell>
        <mxCell id="_PPmYWHMmeneKtp0pq9--17" value="" style="ellipse;whiteSpace=wrap;html=1;aspect=fixed;fillColor=#000000;direction=north;flipV=1;flipH=1;" parent="1" vertex="1">
          <mxGeometry x="-232.95000000000005" y="115.25" width="14" height="14" as="geometry" />
        </mxCell>
        <mxCell id="_PPmYWHMmeneKtp0pq9--22" value="id_valutazione" style="text;html=1;align=center;verticalAlign=middle;whiteSpace=wrap;rounded=0;" parent="1" vertex="1">
          <mxGeometry x="-255.95000000000005" y="119.5" width="60" height="30" as="geometry" />
        </mxCell>
        <mxCell id="_PPmYWHMmeneKtp0pq9--34" value="(0,n)" style="text;html=1;align=center;verticalAlign=middle;whiteSpace=wrap;rounded=0;" parent="1" vertex="1">
          <mxGeometry x="-489" y="1178" width="60" height="30" as="geometry" />
        </mxCell>
        <mxCell id="_PPmYWHMmeneKtp0pq9--35" value="(0,n)" style="text;html=1;align=center;verticalAlign=middle;whiteSpace=wrap;rounded=0;" parent="1" vertex="1">
          <mxGeometry x="-489" y="1088" width="60" height="30" as="geometry" />
        </mxCell>
        <mxCell id="_PPmYWHMmeneKtp0pq9--36" value="(0,n)" style="text;html=1;align=center;verticalAlign=middle;whiteSpace=wrap;rounded=0;" parent="1" vertex="1">
          <mxGeometry x="-580" y="1086" width="60" height="30" as="geometry" />
        </mxCell>
        <mxCell id="_PPmYWHMmeneKtp0pq9--37" value="(0,1)" style="text;html=1;align=center;verticalAlign=middle;whiteSpace=wrap;rounded=0;" parent="1" vertex="1">
          <mxGeometry x="-580" y="1176" width="60" height="30" as="geometry" />
        </mxCell>
        <mxCell id="_PPmYWHMmeneKtp0pq9--38" value="(0,1)" style="text;html=1;align=center;verticalAlign=middle;whiteSpace=wrap;rounded=0;" parent="1" vertex="1">
          <mxGeometry x="346" y="1176" width="60" height="30" as="geometry" />
        </mxCell>
        <mxCell id="_PPmYWHMmeneKtp0pq9--39" value="(0,1)" style="text;html=1;align=center;verticalAlign=middle;whiteSpace=wrap;rounded=0;" parent="1" vertex="1">
          <mxGeometry x="408" y="1178" width="60" height="30" as="geometry" />
        </mxCell>
        <mxCell id="_PPmYWHMmeneKtp0pq9--48" value="" style="ellipse;whiteSpace=wrap;html=1;aspect=fixed;movable=0;resizable=0;rotatable=0;deletable=0;editable=0;locked=1;connectable=0;" parent="1" vertex="1">
          <mxGeometry x="753.75" y="560" width="32.5" height="32.5" as="geometry" />
        </mxCell>
        <mxCell id="_PPmYWHMmeneKtp0pq9--49" value="&lt;b&gt;&lt;font style=&quot;font-size: 17px;&quot;&gt;SI_ISCRIVE&lt;/font&gt;&lt;/b&gt;" style="shape=rhombus;perimeter=rhombusPerimeter;whiteSpace=wrap;html=1;align=center;" parent="1" vertex="1">
          <mxGeometry x="-99" y="331.25" width="134" height="74.5" as="geometry" />
        </mxCell>
        <mxCell id="_PPmYWHMmeneKtp0pq9--50" value="" style="endArrow=none;html=1;rounded=0;exitX=0.984;exitY=0.023;exitDx=0;exitDy=0;exitPerimeter=0;entryX=0;entryY=0.5;entryDx=0;entryDy=0;" parent="1" source="2d3XpBuDdh4GmcxXIJYH-37" target="_PPmYWHMmeneKtp0pq9--49" edge="1">
          <mxGeometry width="50" height="50" relative="1" as="geometry">
            <mxPoint x="-266" y="498" as="sourcePoint" />
            <mxPoint x="-216" y="448" as="targetPoint" />
          </mxGeometry>
        </mxCell>
        <mxCell id="_PPmYWHMmeneKtp0pq9--52" value="(0,n)" style="text;html=1;align=center;verticalAlign=middle;whiteSpace=wrap;rounded=0;" parent="1" vertex="1">
          <mxGeometry x="17" y="333.5" width="60" height="30" as="geometry" />
        </mxCell>
        <mxCell id="_PPmYWHMmeneKtp0pq9--53" value="(0,n)" style="text;html=1;align=center;verticalAlign=middle;whiteSpace=wrap;rounded=0;" parent="1" vertex="1">
          <mxGeometry x="-127" y="370.75" width="60" height="30" as="geometry" />
        </mxCell>
        <mxCell id="_PPmYWHMmeneKtp0pq9--54" value="" style="ellipse;whiteSpace=wrap;html=1;align=center;aspect=fixed;fillColor=none;strokeColor=none;resizable=0;perimeter=centerPerimeter;rotatable=0;allowArrows=0;points=[];outlineConnect=1;" parent="1" vertex="1">
          <mxGeometry x="186" y="864" width="10" height="10" as="geometry" />
        </mxCell>
        <mxCell id="_PPmYWHMmeneKtp0pq9--55" value="ruolo" style="text;html=1;align=center;verticalAlign=middle;whiteSpace=wrap;rounded=0;" parent="1" vertex="1">
          <mxGeometry x="348" y="678.5" width="60" height="30" as="geometry" />
        </mxCell>
        <mxCell id="_PPmYWHMmeneKtp0pq9--57" value="accettato_cand" style="text;html=1;align=center;verticalAlign=middle;whiteSpace=wrap;rounded=0;" parent="1" vertex="1">
          <mxGeometry x="344" y="823.5" width="60" height="30" as="geometry" />
        </mxCell>
        <mxCell id="_PPmYWHMmeneKtp0pq9--58" value="" style="ellipse;whiteSpace=wrap;html=1;aspect=fixed;fillColor=#FFFFFF;" parent="1" vertex="1">
          <mxGeometry x="367" y="706" width="14" height="14" as="geometry" />
        </mxCell>
        <mxCell id="_PPmYWHMmeneKtp0pq9--59" value="" style="endArrow=none;html=1;rounded=0;exitX=0.5;exitY=1;exitDx=0;exitDy=0;entryX=0.25;entryY=0;entryDx=0;entryDy=0;" parent="1" source="_PPmYWHMmeneKtp0pq9--58" edge="1">
          <mxGeometry width="50" height="50" relative="1" as="geometry">
            <mxPoint x="374" y="692" as="sourcePoint" />
            <mxPoint x="374" y="752.5" as="targetPoint" />
          </mxGeometry>
        </mxCell>
        <mxCell id="_PPmYWHMmeneKtp0pq9--62" value="" style="ellipse;whiteSpace=wrap;html=1;aspect=fixed;fillColor=#FFFFFF;" parent="1" vertex="1">
          <mxGeometry x="367" y="813.5" width="14" height="14" as="geometry" />
        </mxCell>
        <mxCell id="_PPmYWHMmeneKtp0pq9--63" value="" style="endArrow=none;html=1;rounded=0;exitX=0.187;exitY=0.688;exitDx=0;exitDy=0;entryX=0.5;entryY=0;entryDx=0;entryDy=0;exitPerimeter=0;" parent="1" source="_PPmYWHMmeneKtp0pq9--64" target="_PPmYWHMmeneKtp0pq9--62" edge="1">
          <mxGeometry width="50" height="50" relative="1" as="geometry">
            <mxPoint x="374" y="781.5" as="sourcePoint" />
            <mxPoint x="374" y="815.5" as="targetPoint" />
          </mxGeometry>
        </mxCell>
        <mxCell id="_PPmYWHMmeneKtp0pq9--64" value="&lt;b&gt;&lt;font style=&quot;font-size: 17px;&quot;&gt;SI_CANDIDA&lt;/font&gt;&lt;/b&gt;" style="shape=rhombus;perimeter=rhombusPerimeter;whiteSpace=wrap;html=1;align=center;" parent="1" vertex="1">
          <mxGeometry x="349" y="728.5" width="134" height="74.5" as="geometry" />
        </mxCell>
        <mxCell id="_PPmYWHMmeneKtp0pq9--65" value="(0,n)" style="text;html=1;align=center;verticalAlign=middle;whiteSpace=wrap;rounded=0;" parent="1" vertex="1">
          <mxGeometry x="659" y="581" width="60" height="30" as="geometry" />
        </mxCell>
        <mxCell id="_PPmYWHMmeneKtp0pq9--72" value="" style="endArrow=none;html=1;rounded=0;exitX=0.5;exitY=0;exitDx=0;exitDy=0;entryX=0.5;entryY=1;entryDx=0;entryDy=0;" parent="1" source="_PPmYWHMmeneKtp0pq9--64" target="2d3XpBuDdh4GmcxXIJYH-4" edge="1">
          <mxGeometry width="50" height="50" relative="1" as="geometry">
            <mxPoint x="168" y="764" as="sourcePoint" />
            <mxPoint x="334" y="615.9999999999998" as="targetPoint" />
          </mxGeometry>
        </mxCell>
        <mxCell id="_PPmYWHMmeneKtp0pq9--73" value="" style="endArrow=none;html=1;rounded=0;exitX=0.5;exitY=1;exitDx=0;exitDy=0;entryX=0.016;entryY=0.034;entryDx=0;entryDy=0;entryPerimeter=0;" parent="1" source="_PPmYWHMmeneKtp0pq9--64" target="c_5whPo5ll7_a1Px60WQ-48" edge="1">
          <mxGeometry width="50" height="50" relative="1" as="geometry">
            <mxPoint x="140" y="1030" as="sourcePoint" />
            <mxPoint x="190" y="980" as="targetPoint" />
          </mxGeometry>
        </mxCell>
        <mxCell id="_PPmYWHMmeneKtp0pq9--74" value="(0,n)" style="text;html=1;align=center;verticalAlign=middle;whiteSpace=wrap;rounded=0;" parent="1" vertex="1">
          <mxGeometry x="400" y="803" width="60" height="30" as="geometry" />
        </mxCell>
        <mxCell id="_PPmYWHMmeneKtp0pq9--75" value="" style="ellipse;whiteSpace=wrap;html=1;aspect=fixed;fillColor=#FFFFFF;direction=south;" parent="1" vertex="1">
          <mxGeometry x="308" y="1206" width="14" height="14" as="geometry" />
        </mxCell>
        <mxCell id="_PPmYWHMmeneKtp0pq9--76" value="" style="endArrow=none;html=1;rounded=0;entryX=0.029;entryY=0.287;entryDx=0;entryDy=0;exitX=0.018;exitY=0.972;exitDx=0;exitDy=0;exitPerimeter=0;entryPerimeter=0;" parent="1" source="c_5whPo5ll7_a1Px60WQ-48" target="_PPmYWHMmeneKtp0pq9--75" edge="1">
          <mxGeometry width="50" height="50" relative="1" as="geometry">
            <mxPoint x="301" y="1163" as="sourcePoint" />
            <mxPoint x="379" y="1179" as="targetPoint" />
          </mxGeometry>
        </mxCell>
        <mxCell id="_PPmYWHMmeneKtp0pq9--77" value="completa" style="text;html=1;align=center;verticalAlign=middle;whiteSpace=wrap;rounded=0;" parent="1" vertex="1">
          <mxGeometry x="248" y="1206" width="60" height="30" as="geometry" />
        </mxCell>
        <mxCell id="_PPmYWHMmeneKtp0pq9--78" value="" style="ellipse;whiteSpace=wrap;html=1;aspect=fixed;fillColor=#FFFFFF;direction=south;" parent="1" vertex="1">
          <mxGeometry x="-420" y="1194" width="14" height="14" as="geometry" />
        </mxCell>
        <mxCell id="_PPmYWHMmeneKtp0pq9--79" value="" style="endArrow=none;html=1;rounded=0;entryX=0;entryY=1;entryDx=0;entryDy=0;exitX=0.985;exitY=0.976;exitDx=0;exitDy=0;exitPerimeter=0;" parent="1" source="c_5whPo5ll7_a1Px60WQ-17" target="_PPmYWHMmeneKtp0pq9--78" edge="1">
          <mxGeometry width="50" height="50" relative="1" as="geometry">
            <mxPoint x="-413" y="1170" as="sourcePoint" />
            <mxPoint x="-335" y="1186" as="targetPoint" />
          </mxGeometry>
        </mxCell>
        <mxCell id="_PPmYWHMmeneKtp0pq9--80" value="a_squadre" style="text;html=1;align=center;verticalAlign=middle;whiteSpace=wrap;rounded=0;" parent="1" vertex="1">
          <mxGeometry x="-406" y="1190" width="60" height="30" as="geometry" />
        </mxCell>
        <mxCell id="_PPmYWHMmeneKtp0pq9--84" value="" style="ellipse;whiteSpace=wrap;html=1;aspect=fixed;fillColor=#FFFFFF;direction=south;" parent="1" vertex="1">
          <mxGeometry x="490" y="1186" width="14" height="14" as="geometry" />
        </mxCell>
        <mxCell id="_PPmYWHMmeneKtp0pq9--85" value="" style="endArrow=none;html=1;rounded=0;exitX=0.986;exitY=0.975;exitDx=0;exitDy=0;exitPerimeter=0;" parent="1" source="c_5whPo5ll7_a1Px60WQ-48" edge="1">
          <mxGeometry width="50" height="50" relative="1" as="geometry">
            <mxPoint x="554" y="1178" as="sourcePoint" />
            <mxPoint x="490" y="1190" as="targetPoint" />
          </mxGeometry>
        </mxCell>
        <mxCell id="_PPmYWHMmeneKtp0pq9--86" value="scadenza" style="text;html=1;align=center;verticalAlign=middle;whiteSpace=wrap;rounded=0;" parent="1" vertex="1">
          <mxGeometry x="500" y="1190" width="60" height="30" as="geometry" />
        </mxCell>
        <mxCell id="_PPmYWHMmeneKtp0pq9--91" value="&lt;b&gt;&lt;font style=&quot;font-size: 15px;&quot;&gt;DISISCRIVE&lt;/font&gt;&lt;/b&gt;" style="shape=rhombus;perimeter=rhombusPerimeter;whiteSpace=wrap;html=1;align=center;" parent="1" vertex="1">
          <mxGeometry x="95" y="450.75" width="120" height="60" as="geometry" />
        </mxCell>
        <mxCell id="_PPmYWHMmeneKtp0pq9--92" value="" style="endArrow=none;html=1;rounded=0;exitX=1;exitY=0.5;exitDx=0;exitDy=0;entryX=0.07;entryY=1.008;entryDx=0;entryDy=0;entryPerimeter=0;" parent="1" source="_PPmYWHMmeneKtp0pq9--91" target="2d3XpBuDdh4GmcxXIJYH-4" edge="1">
          <mxGeometry width="50" height="50" relative="1" as="geometry">
            <mxPoint x="196" y="540" as="sourcePoint" />
            <mxPoint x="246" y="490" as="targetPoint" />
          </mxGeometry>
        </mxCell>
        <mxCell id="_PPmYWHMmeneKtp0pq9--93" value="" style="endArrow=none;html=1;rounded=0;entryX=0;entryY=0.5;entryDx=0;entryDy=0;exitX=1;exitY=0.25;exitDx=0;exitDy=0;" parent="1" source="2d3XpBuDdh4GmcxXIJYH-37" target="_PPmYWHMmeneKtp0pq9--91" edge="1">
          <mxGeometry width="50" height="50" relative="1" as="geometry">
            <mxPoint x="-84" y="756" as="sourcePoint" />
            <mxPoint x="330" y="812" as="targetPoint" />
          </mxGeometry>
        </mxCell>
        <mxCell id="_PPmYWHMmeneKtp0pq9--103" value="(0,n)" style="text;html=1;align=center;verticalAlign=middle;whiteSpace=wrap;rounded=0;" parent="1" vertex="1">
          <mxGeometry x="418" y="697" width="60" height="30" as="geometry" />
        </mxCell>
        <mxCell id="_PPmYWHMmeneKtp0pq9--112" value="" style="endArrow=none;html=1;rounded=0;exitX=1;exitY=0.5;exitDx=0;exitDy=0;entryX=0;entryY=0.5;entryDx=0;entryDy=0;" parent="1" source="2d3XpBuDdh4GmcxXIJYH-45" target="2d3XpBuDdh4GmcxXIJYH-47" edge="1">
          <mxGeometry width="50" height="50" relative="1" as="geometry">
            <mxPoint x="-896" y="596" as="sourcePoint" />
            <mxPoint x="-846" y="546" as="targetPoint" />
          </mxGeometry>
        </mxCell>
        <mxCell id="_PPmYWHMmeneKtp0pq9--113" value="" style="endArrow=none;html=1;rounded=0;exitX=0.25;exitY=0;exitDx=0;exitDy=0;entryX=0.5;entryY=1;entryDx=0;entryDy=0;" parent="1" source="2d3XpBuDdh4GmcxXIJYH-45" target="_PlpnI5WxaQTCf_P7hRN-24" edge="1">
          <mxGeometry width="50" height="50" relative="1" as="geometry">
            <mxPoint x="-1106" y="540" as="sourcePoint" />
            <mxPoint x="-1056" y="490" as="targetPoint" />
          </mxGeometry>
        </mxCell>
        <mxCell id="_PPmYWHMmeneKtp0pq9--114" value="" style="endArrow=none;html=1;rounded=0;exitX=0.75;exitY=0;exitDx=0;exitDy=0;entryX=0.5;entryY=1;entryDx=0;entryDy=0;" parent="1" source="2d3XpBuDdh4GmcxXIJYH-45" target="_PlpnI5WxaQTCf_P7hRN-22" edge="1">
          <mxGeometry width="50" height="50" relative="1" as="geometry">
            <mxPoint x="-966" y="526" as="sourcePoint" />
            <mxPoint x="-980" y="518" as="targetPoint" />
          </mxGeometry>
        </mxCell>
        <mxCell id="_PPmYWHMmeneKtp0pq9--116" value="" style="endArrow=none;html=1;rounded=0;entryX=0;entryY=0.75;entryDx=0;entryDy=0;" parent="1" target="2d3XpBuDdh4GmcxXIJYH-45" edge="1">
          <mxGeometry width="50" height="50" relative="1" as="geometry">
            <mxPoint x="-1106" y="616" as="sourcePoint" />
            <mxPoint x="-1168" y="546" as="targetPoint" />
          </mxGeometry>
        </mxCell>
        <mxCell id="_PPmYWHMmeneKtp0pq9--118" value="" style="endArrow=none;html=1;rounded=0;exitX=1.003;exitY=0.683;exitDx=0;exitDy=0;entryX=0;entryY=0.5;entryDx=0;entryDy=0;exitPerimeter=0;" parent="1" source="c_5whPo5ll7_a1Px60WQ-2" target="_PlpnI5WxaQTCf_P7hRN-4" edge="1">
          <mxGeometry width="50" height="50" relative="1" as="geometry">
            <mxPoint x="-448" y="-16" as="sourcePoint" />
            <mxPoint x="-398" y="-66" as="targetPoint" />
          </mxGeometry>
        </mxCell>
        <mxCell id="_PPmYWHMmeneKtp0pq9--119" value="&lt;b&gt;&lt;font style=&quot;font-size: 16px;&quot;&gt;SI_DILETTA&lt;/font&gt;&lt;/b&gt;" style="shape=rhombus;perimeter=rhombusPerimeter;whiteSpace=wrap;html=1;align=center;" parent="1" vertex="1">
          <mxGeometry x="136" y="-122" width="120" height="60" as="geometry" />
        </mxCell>
        <mxCell id="_PPmYWHMmeneKtp0pq9--120" value="" style="endArrow=none;html=1;rounded=0;exitX=0.995;exitY=0.425;exitDx=0;exitDy=0;entryX=0;entryY=0.5;entryDx=0;entryDy=0;exitPerimeter=0;" parent="1" source="c_5whPo5ll7_a1Px60WQ-2" target="_PPmYWHMmeneKtp0pq9--119" edge="1">
          <mxGeometry width="50" height="50" relative="1" as="geometry">
            <mxPoint x="-343" y="-69.5" as="sourcePoint" />
            <mxPoint x="-119" y="-91.5" as="targetPoint" />
          </mxGeometry>
        </mxCell>
        <mxCell id="_PPmYWHMmeneKtp0pq9--121" value="" style="endArrow=none;html=1;rounded=0;entryX=1;entryY=0.5;entryDx=0;entryDy=0;exitX=0.02;exitY=0.031;exitDx=0;exitDy=0;exitPerimeter=0;" parent="1" source="2d3XpBuDdh4GmcxXIJYH-4" target="_PPmYWHMmeneKtp0pq9--119" edge="1">
          <mxGeometry width="50" height="50" relative="1" as="geometry">
            <mxPoint x="182" y="162" as="sourcePoint" />
            <mxPoint x="232" y="112" as="targetPoint" />
          </mxGeometry>
        </mxCell>
        <mxCell id="_PPmYWHMmeneKtp0pq9--122" value="" style="ellipse;whiteSpace=wrap;html=1;aspect=fixed;fillColor=#FFFFFF;" parent="1" vertex="1">
          <mxGeometry x="190" y="-168.5" width="14" height="14" as="geometry" />
        </mxCell>
        <mxCell id="_PPmYWHMmeneKtp0pq9--123" value="" style="endArrow=none;html=1;rounded=0;exitX=0.5;exitY=1;exitDx=0;exitDy=0;entryX=0.25;entryY=0;entryDx=0;entryDy=0;" parent="1" source="_PPmYWHMmeneKtp0pq9--122" edge="1">
          <mxGeometry width="50" height="50" relative="1" as="geometry">
            <mxPoint x="197" y="-182.5" as="sourcePoint" />
            <mxPoint x="197" y="-122" as="targetPoint" />
          </mxGeometry>
        </mxCell>
        <mxCell id="_PPmYWHMmeneKtp0pq9--124" value="livello" style="text;html=1;align=center;verticalAlign=middle;whiteSpace=wrap;rounded=0;" parent="1" vertex="1">
          <mxGeometry x="167" y="-198.5" width="60" height="30" as="geometry" />
        </mxCell>
        <mxCell id="_PPmYWHMmeneKtp0pq9--125" value="(0,n)" style="text;html=1;align=center;verticalAlign=middle;whiteSpace=wrap;rounded=0;" parent="1" vertex="1">
          <mxGeometry x="256" y="-103" width="60" height="30" as="geometry" />
        </mxCell>
        <mxCell id="_PPmYWHMmeneKtp0pq9--126" value="(0,n)" style="text;html=1;align=center;verticalAlign=middle;whiteSpace=wrap;rounded=0;" parent="1" vertex="1">
          <mxGeometry x="84" y="-123.5" width="60" height="30" as="geometry" />
        </mxCell>
        <mxCell id="Q12W83flebK6DkI4KkJT-1" value="&lt;span style=&quot;font-size: 14px;&quot;&gt;&lt;b&gt;REPORT_S&lt;/b&gt;&lt;/span&gt;" style="shape=rhombus;perimeter=rhombusPerimeter;whiteSpace=wrap;html=1;align=center;" parent="1" vertex="1">
          <mxGeometry x="546" y="952" width="120" height="60" as="geometry" />
        </mxCell>
        <mxCell id="Q12W83flebK6DkI4KkJT-3" value="" style="endArrow=none;html=1;rounded=0;entryX=1;entryY=0.5;entryDx=0;entryDy=0;exitX=0;exitY=1;exitDx=0;exitDy=0;" parent="1" source="p33J7JNSHubDcJJtzhHf-20" target="Q12W83flebK6DkI4KkJT-1" edge="1">
          <mxGeometry width="50" height="50" relative="1" as="geometry">
            <mxPoint x="518" y="1016" as="sourcePoint" />
            <mxPoint x="568" y="966" as="targetPoint" />
          </mxGeometry>
        </mxCell>
        <mxCell id="Q12W83flebK6DkI4KkJT-4" value="" style="endArrow=none;html=1;rounded=0;entryX=1;entryY=0;entryDx=0;entryDy=0;exitX=0;exitY=0.5;exitDx=0;exitDy=0;" parent="1" source="Q12W83flebK6DkI4KkJT-1" target="c_5whPo5ll7_a1Px60WQ-48" edge="1">
          <mxGeometry width="50" height="50" relative="1" as="geometry">
            <mxPoint x="542" y="970" as="sourcePoint" />
            <mxPoint x="504" y="1086" as="targetPoint" />
          </mxGeometry>
        </mxCell>
        <mxCell id="Q12W83flebK6DkI4KkJT-5" value="(2,2)" style="text;html=1;align=center;verticalAlign=middle;whiteSpace=wrap;rounded=0;" parent="1" vertex="1">
          <mxGeometry x="616" y="931" width="60" height="30" as="geometry" />
        </mxCell>
        <mxCell id="Q12W83flebK6DkI4KkJT-6" value="(0,N)" style="text;html=1;align=center;verticalAlign=middle;whiteSpace=wrap;rounded=0;" parent="1" vertex="1">
          <mxGeometry x="520" y="994" width="60" height="30" as="geometry" />
        </mxCell>
        <mxCell id="Q12W83flebK6DkI4KkJT-8" value="pts" style="text;html=1;align=center;verticalAlign=middle;whiteSpace=wrap;rounded=0;" parent="1" vertex="1">
          <mxGeometry x="644" y="1024" width="60" height="30" as="geometry" />
        </mxCell>
        <mxCell id="Q12W83flebK6DkI4KkJT-9" value="" style="ellipse;whiteSpace=wrap;html=1;aspect=fixed;fillColor=#FFFFFF;direction=south;" parent="1" vertex="1">
          <mxGeometry x="654" y="1024" width="14" height="14" as="geometry" />
        </mxCell>
        <mxCell id="Q12W83flebK6DkI4KkJT-10" value="" style="endArrow=none;html=1;rounded=0;exitX=1;exitY=1;exitDx=0;exitDy=0;entryX=0;entryY=1;entryDx=0;entryDy=0;" parent="1" source="Q12W83flebK6DkI4KkJT-1" target="Q12W83flebK6DkI4KkJT-9" edge="1">
          <mxGeometry width="50" height="50" relative="1" as="geometry">
            <mxPoint x="635" y="997" as="sourcePoint" />
            <mxPoint x="636" y="1022" as="targetPoint" />
          </mxGeometry>
        </mxCell>
        <mxCell id="Q12W83flebK6DkI4KkJT-15" value="" style="endArrow=none;html=1;rounded=0;entryX=0;entryY=0;entryDx=0;entryDy=0;targetPerimeterSpacing=0;sourcePerimeterSpacing=4;exitX=1;exitY=0;exitDx=0;exitDy=0;" parent="1" source="Q12W83flebK6DkI4KkJT-16" target="Q12W83flebK6DkI4KkJT-1" edge="1">
          <mxGeometry width="50" height="50" relative="1" as="geometry">
            <mxPoint x="560" y="932" as="sourcePoint" />
            <mxPoint x="576" y="961" as="targetPoint" />
          </mxGeometry>
        </mxCell>
        <mxCell id="Q12W83flebK6DkI4KkJT-16" value="" style="ellipse;whiteSpace=wrap;html=1;aspect=fixed;fillColor=#FFFFFF;direction=south;" parent="1" vertex="1">
          <mxGeometry x="546" y="930" width="14" height="14" as="geometry" />
        </mxCell>
        <mxCell id="Q12W83flebK6DkI4KkJT-17" value="goal" style="text;html=1;align=center;verticalAlign=middle;whiteSpace=wrap;rounded=0;" parent="1" vertex="1">
          <mxGeometry x="504" y="920.5" width="60" height="30" as="geometry" />
        </mxCell>
        <mxCell id="Q12W83flebK6DkI4KkJT-18" value="&lt;span style=&quot;font-size: 17px;&quot;&gt;&lt;b&gt;REPORT_P&lt;/b&gt;&lt;/span&gt;" style="shape=rhombus;perimeter=rhombusPerimeter;whiteSpace=wrap;html=1;align=center;" parent="1" vertex="1">
          <mxGeometry x="910" y="540.5" width="120" height="60" as="geometry" />
        </mxCell>
        <mxCell id="Q12W83flebK6DkI4KkJT-20" value="" style="endArrow=none;html=1;rounded=0;exitX=1;exitY=1;exitDx=0;exitDy=0;entryX=0;entryY=0.5;entryDx=0;entryDy=0;" parent="1" source="2d3XpBuDdh4GmcxXIJYH-4" target="Q12W83flebK6DkI4KkJT-18" edge="1">
          <mxGeometry width="50" height="50" relative="1" as="geometry">
            <mxPoint x="731" y="548.25" as="sourcePoint" />
            <mxPoint x="868" y="364.25" as="targetPoint" />
          </mxGeometry>
        </mxCell>
        <mxCell id="HztqqVfcQuWFdVV3WThe-1" value="(n,n)" style="text;html=1;align=center;verticalAlign=middle;whiteSpace=wrap;rounded=0;" parent="1" vertex="1">
          <mxGeometry x="963" y="595" width="60" height="30" as="geometry" />
        </mxCell>
        <mxCell id="HztqqVfcQuWFdVV3WThe-2" value="(0,n)" style="text;html=1;align=center;verticalAlign=middle;whiteSpace=wrap;rounded=0;" parent="1" vertex="1">
          <mxGeometry x="880" y="530" width="60" height="30" as="geometry" />
        </mxCell>
        <mxCell id="QCVVFnH2ATZnCZ5UGato-1" value="" style="endArrow=none;html=1;rounded=0;exitX=0.5;exitY=0;exitDx=0;exitDy=0;entryX=0.001;entryY=0.879;entryDx=0;entryDy=0;entryPerimeter=0;" parent="1" source="_PPmYWHMmeneKtp0pq9--91" target="2d3XpBuDdh4GmcxXIJYH-4" edge="1">
          <mxGeometry width="50" height="50" relative="1" as="geometry">
            <mxPoint x="140" y="442" as="sourcePoint" />
            <mxPoint x="190" y="392" as="targetPoint" />
          </mxGeometry>
        </mxCell>
        <mxCell id="QCVVFnH2ATZnCZ5UGato-3" value="(0,n)" style="text;html=1;align=center;verticalAlign=middle;whiteSpace=wrap;rounded=0;" parent="1" vertex="1">
          <mxGeometry x="56" y="477.25" width="60" height="30" as="geometry" />
        </mxCell>
        <mxCell id="QCVVFnH2ATZnCZ5UGato-4" value="(0,n)" style="text;html=1;align=center;verticalAlign=middle;whiteSpace=wrap;rounded=0;" parent="1" vertex="1">
          <mxGeometry x="215" y="465.75" width="60" height="30" as="geometry" />
        </mxCell>
        <mxCell id="QCVVFnH2ATZnCZ5UGato-5" value="(0,1)" style="text;html=1;align=center;verticalAlign=middle;whiteSpace=wrap;rounded=0;" parent="1" vertex="1">
          <mxGeometry x="121" y="417.25" width="60" height="30" as="geometry" />
        </mxCell>
        <mxCell id="QCVVFnH2ATZnCZ5UGato-7" value="&lt;b&gt;&lt;font style=&quot;font-size: 14px;&quot;&gt;EFFETTUA&lt;/font&gt;&lt;/b&gt;" style="shape=rhombus;perimeter=rhombusPerimeter;whiteSpace=wrap;html=1;align=center;" parent="1" vertex="1">
          <mxGeometry x="8.5" y="-48" width="120" height="60" as="geometry" />
        </mxCell>
        <mxCell id="QCVVFnH2ATZnCZ5UGato-8" value="" style="endArrow=none;html=1;rounded=0;entryX=1;entryY=0.5;entryDx=0;entryDy=0;exitX=0;exitY=0;exitDx=0;exitDy=0;" parent="1" source="2d3XpBuDdh4GmcxXIJYH-4" target="QCVVFnH2ATZnCZ5UGato-7" edge="1">
          <mxGeometry width="50" height="50" relative="1" as="geometry">
            <mxPoint x="188" y="309.5" as="sourcePoint" />
            <mxPoint x="238" y="259.5" as="targetPoint" />
          </mxGeometry>
        </mxCell>
        <mxCell id="QCVVFnH2ATZnCZ5UGato-9" value="" style="endArrow=none;html=1;rounded=0;exitX=1;exitY=0.5;exitDx=0;exitDy=0;entryX=0;entryY=0.5;entryDx=0;entryDy=0;" parent="1" source="_PPmYWHMmeneKtp0pq9--8" target="QCVVFnH2ATZnCZ5UGato-7" edge="1">
          <mxGeometry width="50" height="50" relative="1" as="geometry">
            <mxPoint x="-21.5" y="204" as="sourcePoint" />
            <mxPoint x="28.5" y="154" as="targetPoint" />
          </mxGeometry>
        </mxCell>
        <mxCell id="QCVVFnH2ATZnCZ5UGato-10" value="&lt;b&gt;&lt;font style=&quot;font-size: 13px;&quot;&gt;RELATIVA_A&lt;/font&gt;&lt;/b&gt;" style="shape=rhombus;perimeter=rhombusPerimeter;whiteSpace=wrap;html=1;align=center;" parent="1" vertex="1">
          <mxGeometry x="-422.95" y="134" width="120" height="60" as="geometry" />
        </mxCell>
        <mxCell id="QCVVFnH2ATZnCZ5UGato-11" value="" style="endArrow=none;html=1;rounded=0;exitX=0.825;exitY=-0.007;exitDx=0;exitDy=0;exitPerimeter=0;entryX=0;entryY=0.5;entryDx=0;entryDy=0;" parent="1" source="2d3XpBuDdh4GmcxXIJYH-37" target="QCVVFnH2ATZnCZ5UGato-10" edge="1">
          <mxGeometry width="50" height="50" relative="1" as="geometry">
            <mxPoint x="-462" y="442" as="sourcePoint" />
            <mxPoint x="-412" y="392" as="targetPoint" />
          </mxGeometry>
        </mxCell>
        <mxCell id="QCVVFnH2ATZnCZ5UGato-12" value="" style="endArrow=none;html=1;rounded=0;exitX=1;exitY=0.5;exitDx=0;exitDy=0;entryX=0;entryY=0.5;entryDx=0;entryDy=0;" parent="1" source="QCVVFnH2ATZnCZ5UGato-10" target="_PPmYWHMmeneKtp0pq9--8" edge="1">
          <mxGeometry width="50" height="50" relative="1" as="geometry">
            <mxPoint x="-382" y="105.5" as="sourcePoint" />
            <mxPoint x="-332" y="55.5" as="targetPoint" />
          </mxGeometry>
        </mxCell>
        <mxCell id="QCVVFnH2ATZnCZ5UGato-13" value="(0,n)" style="text;html=1;align=center;verticalAlign=middle;whiteSpace=wrap;rounded=0;" parent="1" vertex="1">
          <mxGeometry x="105.5" y="-7.5" width="60" height="30" as="geometry" />
        </mxCell>
        <mxCell id="QCVVFnH2ATZnCZ5UGato-14" value="(1,1)" style="text;html=1;align=center;verticalAlign=middle;whiteSpace=wrap;rounded=0;" parent="1" vertex="1">
          <mxGeometry x="-30.5" y="-15.5" width="60" height="30" as="geometry" />
        </mxCell>
        <mxCell id="QCVVFnH2ATZnCZ5UGato-15" value="(1,1)" style="text;html=1;align=center;verticalAlign=middle;whiteSpace=wrap;rounded=0;" parent="1" vertex="1">
          <mxGeometry x="-346.4" y="120" width="60" height="30" as="geometry" />
        </mxCell>
        <mxCell id="QCVVFnH2ATZnCZ5UGato-16" value="(0,n)" style="text;html=1;align=center;verticalAlign=middle;whiteSpace=wrap;rounded=0;" parent="1" vertex="1">
          <mxGeometry x="-429" y="188" width="60" height="30" as="geometry" />
        </mxCell>
        <mxCell id="8fGbZ2xaLBgnwEw3CGJV-1" value="&lt;b&gt;&lt;font style=&quot;font-size: 18px;&quot;&gt;ESITO_E&lt;/font&gt;&lt;/b&gt;" style="rounded=1;arcSize=10;whiteSpace=wrap;html=1;align=center;" parent="1" vertex="1">
          <mxGeometry x="-152" y="222" width="110" height="57" as="geometry" />
        </mxCell>
        <mxCell id="8fGbZ2xaLBgnwEw3CGJV-2" value="&lt;b&gt;REPORT_P_E&lt;/b&gt;" style="shape=rhombus;perimeter=rhombusPerimeter;whiteSpace=wrap;html=1;align=center;" parent="1" vertex="1">
          <mxGeometry x="92.5" y="235.75" width="120" height="60" as="geometry" />
        </mxCell>
        <mxCell id="8fGbZ2xaLBgnwEw3CGJV-3" value="&lt;font style=&quot;font-size: 12px;&quot;&gt;&lt;b&gt;RIFERITO_A&lt;/b&gt;&lt;/font&gt;" style="shape=rhombus;perimeter=rhombusPerimeter;whiteSpace=wrap;html=1;align=center;" parent="1" vertex="1">
          <mxGeometry x="-365.95" y="269" width="120" height="60" as="geometry" />
        </mxCell>
        <mxCell id="8fGbZ2xaLBgnwEw3CGJV-4" value="" style="endArrow=none;html=1;rounded=0;exitX=1;exitY=0.5;exitDx=0;exitDy=0;entryX=0;entryY=0.5;entryDx=0;entryDy=0;" parent="1" source="8fGbZ2xaLBgnwEw3CGJV-1" target="8fGbZ2xaLBgnwEw3CGJV-2" edge="1">
          <mxGeometry width="50" height="50" relative="1" as="geometry">
            <mxPoint x="10.5" y="418.25" as="sourcePoint" />
            <mxPoint x="60.5" y="368.25" as="targetPoint" />
          </mxGeometry>
        </mxCell>
        <mxCell id="8fGbZ2xaLBgnwEw3CGJV-5" value="" style="endArrow=none;html=1;rounded=0;entryX=1;entryY=0.5;entryDx=0;entryDy=0;exitX=0;exitY=0.25;exitDx=0;exitDy=0;" parent="1" source="2d3XpBuDdh4GmcxXIJYH-4" target="8fGbZ2xaLBgnwEw3CGJV-2" edge="1">
          <mxGeometry width="50" height="50" relative="1" as="geometry">
            <mxPoint x="42" y="358" as="sourcePoint" />
            <mxPoint x="92" y="308" as="targetPoint" />
          </mxGeometry>
        </mxCell>
        <mxCell id="8fGbZ2xaLBgnwEw3CGJV-6" value="" style="endArrow=none;html=1;rounded=0;exitX=1;exitY=0.5;exitDx=0;exitDy=0;entryX=0;entryY=0.5;entryDx=0;entryDy=0;" parent="1" source="8fGbZ2xaLBgnwEw3CGJV-3" target="8fGbZ2xaLBgnwEw3CGJV-1" edge="1">
          <mxGeometry width="50" height="50" relative="1" as="geometry">
            <mxPoint x="34.5" y="319" as="sourcePoint" />
            <mxPoint x="84.5" y="269" as="targetPoint" />
          </mxGeometry>
        </mxCell>
        <mxCell id="8fGbZ2xaLBgnwEw3CGJV-7" value="" style="endArrow=none;html=1;rounded=0;exitX=0.875;exitY=0;exitDx=0;exitDy=0;exitPerimeter=0;entryX=0;entryY=0.5;entryDx=0;entryDy=0;" parent="1" source="2d3XpBuDdh4GmcxXIJYH-37" target="8fGbZ2xaLBgnwEw3CGJV-3" edge="1">
          <mxGeometry width="50" height="50" relative="1" as="geometry">
            <mxPoint x="-126" y="400" as="sourcePoint" />
            <mxPoint x="-76" y="350" as="targetPoint" />
          </mxGeometry>
        </mxCell>
        <mxCell id="8fGbZ2xaLBgnwEw3CGJV-8" value="(1,1)" style="text;html=1;align=center;verticalAlign=middle;whiteSpace=wrap;rounded=0;" parent="1" vertex="1">
          <mxGeometry x="52.5" y="262.25" width="60" height="30" as="geometry" />
        </mxCell>
        <mxCell id="8fGbZ2xaLBgnwEw3CGJV-9" value="(0,n)" style="text;html=1;align=center;verticalAlign=middle;whiteSpace=wrap;rounded=0;" parent="1" vertex="1">
          <mxGeometry x="196" y="235.75" width="60" height="30" as="geometry" />
        </mxCell>
        <mxCell id="8fGbZ2xaLBgnwEw3CGJV-11" value="" style="ellipse;whiteSpace=wrap;html=1;aspect=fixed;fillColor=#000000;" parent="1" vertex="1">
          <mxGeometry x="-104" y="178.75" width="14" height="14" as="geometry" />
        </mxCell>
        <mxCell id="8fGbZ2xaLBgnwEw3CGJV-12" value="" style="endArrow=none;html=1;rounded=0;exitX=0.5;exitY=1;exitDx=0;exitDy=0;entryX=0.5;entryY=0;entryDx=0;entryDy=0;" parent="1" source="8fGbZ2xaLBgnwEw3CGJV-11" target="8fGbZ2xaLBgnwEw3CGJV-1" edge="1">
          <mxGeometry width="50" height="50" relative="1" as="geometry">
            <mxPoint x="-93" y="161.5" as="sourcePoint" />
            <mxPoint x="-93" y="222" as="targetPoint" />
          </mxGeometry>
        </mxCell>
        <mxCell id="8fGbZ2xaLBgnwEw3CGJV-14" value="id_esito_e" style="text;html=1;align=center;verticalAlign=middle;whiteSpace=wrap;rounded=0;" parent="1" vertex="1">
          <mxGeometry x="-127" y="154.25" width="60" height="30" as="geometry" />
        </mxCell>
        <mxCell id="8fGbZ2xaLBgnwEw3CGJV-15" value="(1,1)" style="text;html=1;align=center;verticalAlign=middle;whiteSpace=wrap;rounded=0;" parent="1" vertex="1">
          <mxGeometry x="-281.5" y="259" width="60" height="30" as="geometry" />
        </mxCell>
        <mxCell id="8fGbZ2xaLBgnwEw3CGJV-16" value="(0,n)" style="text;html=1;align=center;verticalAlign=middle;whiteSpace=wrap;rounded=0;" parent="1" vertex="1">
          <mxGeometry x="-386.5" y="302" width="60" height="30" as="geometry" />
        </mxCell>
        <mxCell id="Q3d5eWPhyhfruOBv4c8S-1" value="" style="ellipse;whiteSpace=wrap;html=1;aspect=fixed;fillColor=#FFFFFF;" parent="1" vertex="1">
          <mxGeometry x="145.5" y="190.5" width="14" height="14" as="geometry" />
        </mxCell>
        <mxCell id="Q3d5eWPhyhfruOBv4c8S-2" value="" style="endArrow=none;html=1;rounded=0;exitX=0.5;exitY=1;exitDx=0;exitDy=0;entryX=0.25;entryY=0;entryDx=0;entryDy=0;" parent="1" source="Q3d5eWPhyhfruOBv4c8S-1" edge="1">
          <mxGeometry width="50" height="50" relative="1" as="geometry">
            <mxPoint x="152.5" y="176.5" as="sourcePoint" />
            <mxPoint x="152.5" y="237" as="targetPoint" />
          </mxGeometry>
        </mxCell>
        <mxCell id="Q3d5eWPhyhfruOBv4c8S-3" value="pts" style="text;html=1;align=center;verticalAlign=middle;whiteSpace=wrap;rounded=0;" parent="1" vertex="1">
          <mxGeometry x="122.5" y="166" width="60" height="30" as="geometry" />
        </mxCell>
        <mxCell id="Q3d5eWPhyhfruOBv4c8S-4" value="&lt;b&gt;&lt;font style=&quot;font-size: 14px;&quot;&gt;RICEVE&lt;/font&gt;&lt;/b&gt;" style="shape=rhombus;perimeter=rhombusPerimeter;whiteSpace=wrap;html=1;align=center;" parent="1" vertex="1">
          <mxGeometry x="25.5" y="65.5" width="120" height="60" as="geometry" />
        </mxCell>
        <mxCell id="Q3d5eWPhyhfruOBv4c8S-5" value="(0,n)" style="text;html=1;align=center;verticalAlign=middle;whiteSpace=wrap;rounded=0;" parent="1" vertex="1">
          <mxGeometry x="122.5" y="106" width="60" height="30" as="geometry" />
        </mxCell>
        <mxCell id="Q3d5eWPhyhfruOBv4c8S-6" value="(1,1)" style="text;html=1;align=center;verticalAlign=middle;whiteSpace=wrap;rounded=0;" parent="1" vertex="1">
          <mxGeometry x="-13.5" y="98" width="60" height="30" as="geometry" />
        </mxCell>
        <mxCell id="Q3d5eWPhyhfruOBv4c8S-7" value="" style="endArrow=none;html=1;rounded=0;exitX=1;exitY=0.75;exitDx=0;exitDy=0;entryX=0;entryY=0.5;entryDx=0;entryDy=0;" parent="1" source="_PPmYWHMmeneKtp0pq9--8" target="Q3d5eWPhyhfruOBv4c8S-4" edge="1">
          <mxGeometry width="50" height="50" relative="1" as="geometry">
            <mxPoint x="173.5" y="160" as="sourcePoint" />
            <mxPoint x="223.5" y="110" as="targetPoint" />
          </mxGeometry>
        </mxCell>
        <mxCell id="Q3d5eWPhyhfruOBv4c8S-9" value="" style="endArrow=none;html=1;rounded=0;entryX=1;entryY=0.5;entryDx=0;entryDy=0;exitX=0;exitY=0;exitDx=0;exitDy=0;" parent="1" source="2d3XpBuDdh4GmcxXIJYH-4" target="Q3d5eWPhyhfruOBv4c8S-4" edge="1">
          <mxGeometry width="50" height="50" relative="1" as="geometry">
            <mxPoint x="168" y="190" as="sourcePoint" />
            <mxPoint x="218" y="140" as="targetPoint" />
          </mxGeometry>
        </mxCell>
        <mxCell id="xLxa2WEdtthbj-L3RuM3-1" value="" style="ellipse;whiteSpace=wrap;html=1;aspect=fixed;fillColor=#FFFFFF;direction=south;" parent="1" vertex="1">
          <mxGeometry x="-406" y="1155" width="14" height="14" as="geometry" />
        </mxCell>
        <mxCell id="xLxa2WEdtthbj-L3RuM3-2" value="" style="endArrow=none;html=1;rounded=0;entryX=0.5;entryY=1;entryDx=0;entryDy=0;exitX=1;exitY=0.75;exitDx=0;exitDy=0;" parent="1" source="c_5whPo5ll7_a1Px60WQ-17" target="xLxa2WEdtthbj-L3RuM3-1" edge="1">
          <mxGeometry width="50" height="50" relative="1" as="geometry">
            <mxPoint x="-441" y="1155" as="sourcePoint" />
            <mxPoint x="-327" y="1166" as="targetPoint" />
          </mxGeometry>
        </mxCell>
        <mxCell id="xLxa2WEdtthbj-L3RuM3-3" value="" style="ellipse;whiteSpace=wrap;html=1;aspect=fixed;fillColor=#FFFFFF;direction=south;" parent="1" vertex="1">
          <mxGeometry x="-406" y="1128" width="14" height="14" as="geometry" />
        </mxCell>
        <mxCell id="xLxa2WEdtthbj-L3RuM3-4" value="" style="endArrow=none;html=1;rounded=0;entryX=0.5;entryY=1;entryDx=0;entryDy=0;exitX=1;exitY=0.75;exitDx=0;exitDy=0;" parent="1" target="xLxa2WEdtthbj-L3RuM3-3" edge="1">
          <mxGeometry width="50" height="50" relative="1" as="geometry">
            <mxPoint x="-447" y="1135" as="sourcePoint" />
            <mxPoint x="-327" y="1139" as="targetPoint" />
          </mxGeometry>
        </mxCell>
        <mxCell id="xLxa2WEdtthbj-L3RuM3-5" value="el_diretta" style="text;html=1;align=center;verticalAlign=middle;whiteSpace=wrap;rounded=0;" parent="1" vertex="1">
          <mxGeometry x="-663" y="1120" width="60" height="30" as="geometry" />
        </mxCell>
        <mxCell id="xLxa2WEdtthbj-L3RuM3-6" value="" style="ellipse;whiteSpace=wrap;html=1;aspect=fixed;fillColor=none;" parent="1" vertex="1">
          <mxGeometry x="-603" y="1128" width="14" height="14" as="geometry" />
        </mxCell>
        <mxCell id="xLxa2WEdtthbj-L3RuM3-7" value="" style="endArrow=none;html=1;rounded=0;entryX=1;entryY=0.5;entryDx=0;entryDy=0;" parent="1" target="xLxa2WEdtthbj-L3RuM3-6" edge="1">
          <mxGeometry width="50" height="50" relative="1" as="geometry">
            <mxPoint x="-561" y="1135" as="sourcePoint" />
            <mxPoint x="-596" y="1174.5" as="targetPoint" />
          </mxGeometry>
        </mxCell>
        <mxCell id="xLxa2WEdtthbj-L3RuM3-8" value="gironi" style="text;html=1;align=center;verticalAlign=middle;whiteSpace=wrap;rounded=0;" parent="1" vertex="1">
          <mxGeometry x="-392" y="1118" width="60" height="30" as="geometry" />
        </mxCell>
        <mxCell id="xLxa2WEdtthbj-L3RuM3-9" value="mista" style="text;html=1;align=center;verticalAlign=middle;whiteSpace=wrap;rounded=0;" parent="1" vertex="1">
          <mxGeometry x="-392.95" y="1146" width="60" height="30" as="geometry" />
        </mxCell>
        <mxCell id="xLxa2WEdtthbj-L3RuM3-10" value="(0,1)" style="text;html=1;align=center;verticalAlign=middle;whiteSpace=wrap;rounded=0;" parent="1" vertex="1">
          <mxGeometry x="-603" y="1112" width="60" height="30" as="geometry" />
        </mxCell>
        <mxCell id="xLxa2WEdtthbj-L3RuM3-11" value="(0,1)" style="text;html=1;align=center;verticalAlign=middle;whiteSpace=wrap;rounded=0;" parent="1" vertex="1">
          <mxGeometry x="-452.95" y="1112" width="60" height="30" as="geometry" />
        </mxCell>
        <mxCell id="xLxa2WEdtthbj-L3RuM3-12" value="(0,1)" style="text;html=1;align=center;verticalAlign=middle;whiteSpace=wrap;rounded=0;" parent="1" vertex="1">
          <mxGeometry x="-452.95" y="1140" width="60" height="30" as="geometry" />
        </mxCell>
        <mxCell id="xLxa2WEdtthbj-L3RuM3-13" value="u_premium" style="text;html=1;align=center;verticalAlign=middle;whiteSpace=wrap;rounded=0;" parent="1" vertex="1">
          <mxGeometry x="606" y="288" width="60" height="30" as="geometry" />
        </mxCell>
        <mxCell id="xLxa2WEdtthbj-L3RuM3-14" value="" style="ellipse;whiteSpace=wrap;html=1;aspect=fixed;fillColor=#FFFFFF;" parent="1" vertex="1">
          <mxGeometry x="588" y="296" width="14" height="14" as="geometry" />
        </mxCell>
        <mxCell id="xLxa2WEdtthbj-L3RuM3-15" value="" style="endArrow=none;html=1;rounded=0;entryX=1;entryY=0.5;entryDx=0;entryDy=0;" parent="1" edge="1">
          <mxGeometry width="50" height="50" relative="1" as="geometry">
            <mxPoint x="588" y="303.67" as="sourcePoint" />
            <mxPoint x="560" y="303.67" as="targetPoint" />
          </mxGeometry>
        </mxCell>
      </root>
    </mxGraphModel>
  </diagram>
</mxfile>
